<svg width="215" height="238" viewBox="0 0 215 238" fill="none" xmlns="http://www.w3.org/2000/svg">
<g clip-path="url(#clip0_528_6707)">
<path d="M90.474 110.418C80.3736 110.418 70.4999 107.409 62.1017 101.771C53.7035 96.1328 47.1578 88.1194 43.2926 78.7438C39.4273 69.3683 38.4159 59.0517 40.3864 49.0987C42.357 39.1457 47.2208 30.0032 54.3629 22.8275C61.505 15.6518 70.6046 10.765 80.511 8.78526C90.4174 6.80548 100.686 7.82158 110.017 11.7051C119.349 15.5885 127.325 22.165 132.936 30.6027C138.548 39.0405 141.543 48.9606 141.543 59.1086C141.528 72.712 136.142 85.7537 126.568 95.3727C116.994 104.992 104.014 110.402 90.474 110.418ZM90.474 8.60739C80.5326 8.60739 70.8145 11.5692 62.5485 17.1184C54.2825 22.6675 47.84 30.5547 44.0356 39.7826C40.2312 49.0105 39.2358 59.1646 41.1752 68.9609C43.1147 78.7572 47.9019 87.7557 54.9316 94.8184C61.9612 101.881 70.9175 106.691 80.6679 108.639C90.4183 110.588 100.525 109.588 109.71 105.766C118.894 101.943 126.744 95.4705 132.268 87.1656C137.791 78.8607 140.739 69.0968 140.739 59.1086C140.724 45.7195 135.423 32.8831 126 23.4156C116.577 13.948 103.8 8.62252 90.474 8.60739Z" fill="#F2F2F2"/>
<path d="M94.3711 70.3359H127.117C127.223 70.3359 127.326 70.2934 127.401 70.2176C127.477 70.1419 127.519 70.0391 127.519 69.9319C127.519 69.8248 127.477 69.722 127.401 69.6463C127.326 69.5705 127.223 69.5279 127.117 69.5279H94.3711C94.2645 69.5279 94.1622 69.5705 94.0868 69.6463C94.0114 69.722 93.969 69.8248 93.969 69.9319C93.969 70.0391 94.0114 70.1419 94.0868 70.2176C94.1622 70.2934 94.2645 70.3359 94.3711 70.3359Z" fill="#3F3D56"/>
<path d="M135.275 69.1239C132.542 69.127 129.922 70.2193 127.989 72.1611C126.056 74.1029 124.969 76.7357 124.966 79.4818V123.408C124.969 126.154 126.056 128.786 127.989 130.728C129.922 132.67 132.542 133.762 135.275 133.765H203.122C205.856 133.762 208.476 132.67 210.409 130.728C212.342 128.786 213.429 126.154 213.432 123.408V79.4818C213.429 76.7357 212.342 74.1029 210.409 72.1611C208.476 70.2193 205.856 69.127 203.122 69.1239H135.275Z" fill="white"/>
<path d="M203.122 134.169H135.275C132.436 134.166 129.713 133.031 127.705 131.014C125.697 128.996 124.567 126.261 124.564 123.408V79.4818C124.567 76.6285 125.697 73.8931 127.705 71.8756C129.713 69.858 132.436 68.7231 135.275 68.7199H203.122C205.962 68.7231 208.685 69.858 210.693 71.8756C212.701 73.8931 213.831 76.6285 213.834 79.4818V123.408C213.831 126.261 212.701 128.996 210.693 131.014C208.685 133.031 205.962 134.166 203.122 134.169ZM135.275 69.5279C132.649 69.5309 130.131 70.5805 128.273 72.4466C126.416 74.3127 125.371 76.8428 125.368 79.4818V123.408C125.371 126.047 126.416 128.577 128.273 130.443C130.131 132.309 132.649 133.359 135.275 133.361H203.122C205.749 133.359 208.267 132.309 210.125 130.443C211.982 128.577 213.027 126.047 213.03 123.408V79.4818C213.027 76.8428 211.982 74.3127 210.125 72.4466C208.267 70.5805 205.749 69.5309 203.122 69.5279H135.275Z" fill="#3F3D56"/>
<path d="M93.208 66.554C92.1937 66.731 91.2881 67.2987 90.6841 68.1363C90.08 68.9738 89.8251 70.0152 89.9735 71.0387C90.0069 71.2463 90.0574 71.4507 90.1244 71.6499L69.8954 89.562L77.3884 94.8352L95.2662 73.9114C96.0668 73.5683 96.7319 72.9685 97.1576 72.2057C97.5833 71.4429 97.7457 70.56 97.6194 69.6947C97.5429 69.2031 97.3707 68.7314 97.1127 68.3066C96.8547 67.8818 96.5159 67.5122 96.1158 67.2189C95.7156 66.9256 95.2619 66.7144 94.7805 66.5973C94.2991 66.4802 93.7994 66.4596 93.3101 66.5365C93.276 66.5418 93.2419 66.5477 93.208 66.554Z" fill="#A0616A"/>
<path d="M85.5344 86.8236C85.5344 86.8236 80.9703 92.104 75.4131 98.0833C75.027 98.4954 74.641 98.9116 74.2429 99.3317C70.8651 102.927 67.226 106.66 64.0694 109.557C60.7036 112.656 57.8848 114.813 56.5176 114.866C56.4038 114.873 56.2895 114.861 56.1798 114.83C52.0903 113.593 55.46 115.064 53.7108 117.573C51.9536 120.086 52.1707 116.789 48.234 114.83C44.3053 112.87 46.3963 114.817 44.8281 117.912C44.3415 118.882 40.071 118.684 34.4414 117.957C33.806 112.563 32.8812 107.909 32.8812 107.909C32.8696 104.674 33.1985 101.447 33.8623 98.2813C43.67 98.1035 51.7807 98.0025 52.1948 98.1318C53.2645 98.4591 55.5646 97.6308 58.106 96.1885C58.4679 95.9825 59.1515 95.5057 60.0562 94.8351C60.8564 94.2452 61.8215 93.5099 62.8952 92.6858C64.1015 91.7485 66.1563 91.2354 66.8239 89.6032C68.7621 84.8924 68.0986 88.4073 68.6173 88.1891C69.2084 87.9386 70.2539 87.8417 70.8651 87.4821C71.0324 87.4086 71.17 87.2803 71.2554 87.1182C71.3409 86.956 71.3691 86.7696 71.3356 86.5892C71.3058 86.4359 71.2543 86.2876 71.1828 86.1489C70.6279 85.0298 71.4723 84.9207 72.2685 84.8035C72.5985 84.7872 72.9198 84.6916 73.2055 84.5248C76.4023 81.9633 78.823 79.9958 78.823 79.9958L79.6916 80.8846L79.6956 80.8887L84.8347 86.1165L85.5344 86.8236Z" fill="#3F3D56"/>
<path d="M81.1502 237.504H30.3315C28.1562 237.504 26.3864 235.259 26.3864 232.501V178.247C26.3864 175.488 28.1562 173.244 30.3315 173.244H81.1502C83.3256 173.244 85.0954 175.488 85.0954 178.247V232.501C85.0954 235.259 83.3256 237.504 81.1502 237.504Z" fill="#F2F2F2"/>
<path d="M-1.73787e-05 237.393C-0.0151152 237.537 0.0265267 237.681 0.115986 237.795C0.205446 237.908 0.335601 237.982 0.478528 238H214.521C214.658 237.968 214.779 237.89 214.866 237.78C214.953 237.67 215 237.534 215 237.393C215 237.253 214.953 237.116 214.866 237.006C214.779 236.896 214.658 236.818 214.521 236.786H0.478503C0.335583 236.804 0.20544 236.878 0.115986 236.992C0.0265327 237.105 -0.0151104 237.249 -1.73787e-05 237.393Z" fill="#CCCCCC"/>
<path d="M116.439 229.98L121.562 229.98L124 210.123L116.438 210.124L116.439 229.98Z" fill="#A0616A"/>
<path d="M116.258 235.35L132.015 235.35V235.15C132.015 233.516 131.368 231.948 130.218 230.793C129.068 229.637 127.508 228.988 125.882 228.988L123.003 226.794L117.634 228.988L116.258 228.988L116.258 235.35Z" fill="#2F2E41"/>
<path d="M84.6143 227.613L89.5462 229.008L97.2492 210.558L89.9697 208.499L84.6143 227.613Z" fill="#A0616A"/>
<path d="M82.9919 232.733L98.1587 237.023L98.2127 236.83C98.6534 235.257 98.4542 233.573 97.6588 232.148C96.8635 230.722 95.5372 229.672 93.9716 229.229L91.7926 226.334L86.0318 226.984L84.7079 226.609L82.9919 232.733Z" fill="#2F2E41"/>
<path d="M71.4845 143.058C71.4845 143.058 69.8439 142.894 74.05 144.356C78.602 145.944 85.5104 145.738 92.1252 148.121C94.1679 148.857 96.2389 149.608 98.2937 150.36C98.7079 150.509 99.1221 150.663 99.5362 150.812C102.21 151.794 104.84 152.776 107.325 153.713C107.675 153.846 108.021 153.98 108.363 154.109C108.371 154.113 108.379 154.113 108.383 154.117C116.485 157.212 122.859 159.862 123.913 160.921C125.039 162.052 125.505 169.696 125.634 179.141C125.867 196.647 124.946 220.346 124.946 220.346L115.468 220.31C115.468 220.31 115.408 220.1 115.291 219.708C115.082 218.985 114.692 217.639 114.173 215.882C112.018 208.541 107.679 193.993 105.282 187.331C104.607 185.448 104.084 184.196 103.807 183.913C102.198 182.256 103.807 181.525 105.415 180.475C107.024 179.424 105.415 179.101 104.233 177.727C103.051 176.354 104.675 173.259 104.675 173.259C104.675 173.259 103.606 173.231 101.901 173.186C99.3834 173.122 95.4668 173.025 91.5462 172.928C91.5421 172.932 91.5421 172.932 91.5421 172.928C90.0664 172.891 88.5906 172.855 87.1912 172.823C86.1055 172.794 85.064 172.77 84.099 172.746C81.2077 172.681 79.0202 172.637 78.4733 172.637C76.6879 172.637 78.0752 172.637 76.9975 171.219C76.8322 171.007 76.6536 170.806 76.4627 170.617C76.1925 170.314 75.8965 170.036 75.5781 169.785C75.3529 169.679 75.6585 170.33 75.4896 171.174C75.3972 171.632 75.1817 172.055 74.8663 172.398C73.2699 174.18 68.3721 172.257 68.3721 172.257C60.3137 176.305 53.7029 176.014 48.6121 174.12C44.9553 172.704 41.6751 170.455 39.0297 167.55C37.9825 166.444 37.0427 165.24 36.2229 163.955L35.5594 163.829C35.5594 163.829 34.6666 133.778 35.696 131.745C37.3005 128.578 61.0294 130.937 61.0294 130.937L71.4845 143.058Z" fill="#2F2E41"/>
<path d="M115.683 21.4508H148.429C148.536 21.4508 148.638 21.4082 148.713 21.3324C148.789 21.2566 148.831 21.1539 148.831 21.0467C148.831 20.9396 148.789 20.8368 148.713 20.7611C148.638 20.6853 148.536 20.6427 148.429 20.6427H115.683C115.577 20.6427 115.474 20.6853 115.399 20.7611C115.323 20.8368 115.281 20.9396 115.281 21.0467C115.281 21.1539 115.323 21.2566 115.399 21.3324C115.474 21.4082 115.577 21.4508 115.683 21.4508Z" fill="#3F3D56"/>
<path d="M160.017 53.5805C153.378 44.708 149.541 34.7862 149.415 23.4746C149.201 22.865 149.237 22.1951 149.514 21.6118C149.791 21.0284 150.287 20.5794 150.893 20.3631L173.523 12.3182C174.13 12.1033 174.797 12.139 175.377 12.4174C175.958 12.6958 176.405 13.1943 176.62 13.8034L187.223 43.9093C187.437 44.5189 187.401 45.1888 187.124 45.7721C186.847 46.3555 186.351 46.8045 185.744 47.0208L163.114 55.0657C162.508 55.2806 161.841 55.2449 161.26 54.9665C160.68 54.6881 160.233 54.1896 160.017 53.5805Z" fill="#E6E6E6"/>
<path d="M158.551 43.8702C154.558 39.8138 152.848 32.579 151.735 24.5154C151.534 23.9445 151.568 23.317 151.827 22.7707C152.087 22.2244 152.551 21.8039 153.119 21.6013L172.568 14.6875C173.136 14.4862 173.76 14.5196 174.304 14.7803C174.848 15.041 175.267 15.5078 175.468 16.0783L184.903 42.8685C185.103 43.4394 185.07 44.0668 184.81 44.6131C184.551 45.1594 184.086 45.58 183.518 45.7825L171.47 50.0655C168.939 50.9621 166.158 50.8133 163.736 49.6519C161.314 48.4904 159.449 46.4111 158.551 43.8702Z" fill="white"/>
<path d="M175.728 30.5103L160.578 35.9435C160.459 35.9863 160.332 36.0051 160.206 35.9987C160.079 35.9924 159.955 35.9611 159.841 35.9065C159.726 35.852 159.623 35.7753 159.538 35.6809C159.453 35.5865 159.388 35.4762 159.345 35.3562C159.302 35.2363 159.284 35.1091 159.29 34.9819C159.296 34.8547 159.328 34.73 159.382 34.615C159.436 34.4999 159.512 34.3967 159.606 34.3112C159.7 34.2258 159.81 34.1598 159.93 34.117L175.08 28.6837C175.199 28.6409 175.325 28.6221 175.452 28.6285C175.579 28.6348 175.703 28.6662 175.817 28.7207C175.932 28.7752 176.035 28.8519 176.12 28.9463C176.205 29.0407 176.27 29.1511 176.313 29.271C176.356 29.3909 176.374 29.5181 176.368 29.6453C176.362 29.7725 176.33 29.8972 176.276 30.0123C176.222 30.1273 176.146 30.2305 176.052 30.316C175.958 30.4014 175.848 30.4675 175.728 30.5103Z" fill="#599ED9"/>
<path d="M162.132 29.7397L158.799 30.935C158.558 31.0211 158.293 31.0077 158.062 30.8975C157.831 30.7873 157.653 30.5894 157.567 30.3474C157.481 30.1053 157.494 29.8389 157.603 29.6066C157.713 29.3743 157.909 29.1951 158.15 29.1084L161.483 27.9131C161.724 27.8267 161.99 27.84 162.221 27.9501C162.452 28.0602 162.631 28.2582 162.717 28.5004C162.803 28.7426 162.789 29.0093 162.68 29.2417C162.57 29.4741 162.373 29.6532 162.132 29.7397Z" fill="#599ED9"/>
<path d="M178.581 38.5403L163.431 43.9735C163.312 44.0163 163.185 44.0351 163.059 44.0288C162.932 44.0224 162.808 43.9911 162.694 43.9365C162.579 43.882 162.476 43.8053 162.391 43.7109C162.306 43.6165 162.241 43.5062 162.198 43.3862C162.155 43.2663 162.137 43.1391 162.143 43.0119C162.149 42.8847 162.18 42.76 162.235 42.645C162.289 42.5299 162.365 42.4267 162.459 42.3412C162.553 42.2558 162.663 42.1898 162.782 42.147L177.932 36.7137C178.052 36.6708 178.179 36.6519 178.305 36.6581C178.432 36.6644 178.556 36.6956 178.671 36.7502C178.785 36.8047 178.888 36.8813 178.973 36.9758C179.058 37.0703 179.124 37.1807 179.167 37.3007C179.209 37.4207 179.228 37.548 179.222 37.6752C179.215 37.8025 179.184 37.9273 179.13 38.0424C179.075 38.1575 178.999 38.2607 178.905 38.3462C178.811 38.4316 178.701 38.4976 178.581 38.5403Z" fill="#599ED9"/>
<path d="M177.155 34.5253L162.005 39.9585C161.764 40.045 161.498 40.0317 161.267 39.9215C161.036 39.8114 160.858 39.6134 160.772 39.3712C160.685 39.129 160.699 38.8624 160.808 38.63C160.918 38.3976 161.115 38.2184 161.356 38.132L176.506 32.6987C176.747 32.6126 177.012 32.6261 177.243 32.7362C177.474 32.8464 177.653 33.0443 177.739 33.2863C177.825 33.5284 177.811 33.7948 177.702 34.0272C177.593 34.2595 177.396 34.4386 177.155 34.5253Z" fill="#599ED9"/>
<path d="M150.702 26.7029C152.922 26.7029 154.723 24.8941 154.723 22.6628C154.723 20.4315 152.922 18.6227 150.702 18.6227C148.481 18.6227 146.68 20.4315 146.68 22.6628C146.68 24.8941 148.481 26.7029 150.702 26.7029Z" fill="#599ED9"/>
<path d="M77.9523 13.7746H45.2067C45.1 13.7746 44.9977 13.732 44.9223 13.6562C44.8469 13.5805 44.8046 13.4777 44.8046 13.3706C44.8046 13.2634 44.8469 13.1607 44.9223 13.0849C44.9977 13.0091 45.1 12.9666 45.2067 12.9666H77.9523C78.059 12.9666 78.1613 13.0091 78.2367 13.0849C78.3121 13.1607 78.3545 13.2634 78.3545 13.3706C78.3545 13.4777 78.3121 13.5805 78.2367 13.6562C78.1613 13.732 78.059 13.7746 77.9523 13.7746Z" fill="#3F3D56"/>
<path d="M2.8612 28.1054C5.70513 17.3791 11.101 8.21854 19.8774 1.13215C20.2224 0.586608 20.7687 0.200845 21.3965 0.0594884C22.0242 -0.0818686 22.6822 0.032727 23.2259 0.378136L43.5013 13.2896C44.0443 13.6362 44.4282 14.1851 44.5689 14.8159C44.7096 15.4466 44.5956 16.1076 44.2518 16.6539L27.2356 43.6271C26.8906 44.1727 26.3443 44.5585 25.7165 44.6998C25.0887 44.8412 24.4308 44.7266 23.887 44.3812L3.61169 31.4697C3.0687 31.1231 2.68474 30.5742 2.54404 29.9435C2.40335 29.3127 2.51741 28.6517 2.8612 28.1054Z" fill="#E6E6E6"/>
<path d="M9.55606 20.9487C10.2647 15.2881 14.8719 9.4687 20.4956 3.6079C20.8187 3.09696 21.3304 2.73567 21.9183 2.60328C22.5062 2.4709 23.1224 2.57823 23.6316 2.90173L41.0566 13.998C41.5651 14.3227 41.9247 14.8367 42.0565 15.4274C42.1883 16.0181 42.0815 16.6372 41.7595 17.1489L26.6175 41.1514C26.2943 41.6623 25.7827 42.0236 25.1947 42.156C24.6068 42.2884 23.9906 42.181 23.4813 41.8575L12.687 34.9836C10.4218 33.5375 8.81999 31.2477 8.23304 28.6166C7.64609 25.9855 8.12189 23.2278 9.55606 20.9487Z" fill="white"/>
<path d="M30.6239 26.269L17.0131 17.6547C16.7968 17.5175 16.6436 17.2996 16.5871 17.0489C16.5306 16.7983 16.5754 16.5353 16.7118 16.3179C16.8481 16.1004 17.0648 15.9462 17.3142 15.8892C17.5637 15.8322 17.8254 15.8769 18.042 16.0137L31.6528 24.6281C31.7601 24.6959 31.8532 24.7843 31.9265 24.8882C31.9999 24.9922 32.0521 25.1097 32.0803 25.2339C32.1084 25.3582 32.1119 25.4868 32.0906 25.6124C32.0692 25.738 32.0234 25.8581 31.9558 25.966C31.8882 26.0738 31.8001 26.1671 31.6966 26.2407C31.593 26.3143 31.4761 26.3667 31.3524 26.3949C31.2287 26.423 31.1007 26.4264 30.9757 26.4048C30.8507 26.3832 30.7311 26.3371 30.6239 26.269Z" fill="#599ED9"/>
<path d="M22.8288 15.0502L19.8344 13.155C19.727 13.0872 19.634 12.9988 19.5606 12.8949C19.4873 12.7909 19.435 12.6735 19.4069 12.5492C19.3787 12.425 19.3752 12.2963 19.3966 12.1707C19.4179 12.0451 19.4637 11.925 19.5313 11.8172C19.5989 11.7093 19.687 11.616 19.7906 11.5424C19.8941 11.4688 20.0111 11.4164 20.1348 11.3883C20.2585 11.3601 20.3865 11.3567 20.5115 11.3783C20.6365 11.3999 20.756 11.446 20.8633 11.5141L23.8576 13.4092C23.965 13.477 24.058 13.5654 24.1314 13.6694C24.2048 13.7734 24.257 13.8908 24.2851 14.0151C24.3133 14.1393 24.3168 14.2679 24.2954 14.3935C24.2741 14.5191 24.2283 14.6393 24.1607 14.7471C24.0931 14.8549 24.005 14.9483 23.9015 15.0219C23.7979 15.0955 23.6809 15.1479 23.5572 15.176C23.4335 15.2042 23.3055 15.2075 23.1805 15.186C23.0555 15.1644 22.936 15.1182 22.8288 15.0502Z" fill="#599ED9"/>
<path d="M26.1007 33.4832L12.4899 24.8689C12.3825 24.801 12.2895 24.7126 12.2161 24.6087C12.1428 24.5047 12.0905 24.3873 12.0624 24.263C12.0342 24.1388 12.0308 24.0102 12.0521 23.8845C12.0735 23.7589 12.1193 23.6388 12.1869 23.531C12.2545 23.4231 12.3425 23.3298 12.4461 23.2562C12.5496 23.1826 12.6666 23.1302 12.7903 23.1021C12.914 23.0739 13.042 23.0705 13.167 23.0921C13.292 23.1137 13.4115 23.1598 13.5188 23.2279L27.1296 31.8422C27.3459 31.9795 27.4991 32.1973 27.5556 32.448C27.6121 32.6986 27.5673 32.9616 27.4309 33.1791C27.2946 33.3965 27.0779 33.5507 26.8284 33.6077C26.579 33.6648 26.3173 33.62 26.1007 33.4832Z" fill="#599ED9"/>
<path d="M28.3623 29.8761L14.7515 21.2618C14.6441 21.194 14.5511 21.1055 14.4777 21.0016C14.4044 20.8976 14.3521 20.7802 14.324 20.6559C14.2958 20.5317 14.2924 20.4031 14.3137 20.2775C14.3351 20.1518 14.3808 20.0317 14.4485 19.9239C14.5161 19.8161 14.6041 19.7227 14.7077 19.6491C14.8112 19.5755 14.9282 19.5231 15.0519 19.495C15.1756 19.4668 15.3036 19.4635 15.4286 19.485C15.5536 19.5066 15.6731 19.5528 15.7804 19.6208L29.3912 28.2352C29.6078 28.3722 29.7613 28.5902 29.8179 28.841C29.8746 29.0918 29.8298 29.3549 29.6934 29.5725C29.6258 29.6803 29.5378 29.7736 29.4343 29.8472C29.3309 29.9207 29.214 29.9731 29.0904 30.0013C28.8408 30.0582 28.5789 30.0132 28.3623 29.8761Z" fill="#599ED9"/>
<path d="M42.9341 19.0267C45.155 19.0267 46.9553 17.2179 46.9553 14.9866C46.9553 12.7553 45.155 10.9465 42.9341 10.9465C40.7133 10.9465 38.913 12.7553 38.913 14.9866C38.913 17.2179 40.7133 19.0267 42.9341 19.0267Z" fill="#599ED9"/>
<path d="M129.389 75.5881C131.61 75.5881 133.411 73.7793 133.411 71.548C133.411 69.3167 131.61 67.5079 129.389 67.5079C127.169 67.5079 125.368 69.3167 125.368 71.548C125.368 73.7793 127.169 75.5881 129.389 75.5881Z" fill="#599ED9"/>
<path d="M110.566 172.503C108.889 181.682 101.783 203.196 97.4888 215.789C95.5305 221.542 95.3696 219.376 95.3696 219.376L93.1379 218.669L89.374 217.473L87.9988 217.037L86.334 216.508C86.334 216.508 85.5177 201.875 85.2563 190.898C85.1679 187.358 85.0151 184.829 84.7617 184.328C83.7162 182.268 85.4655 182.05 87.3112 181.529C89.1609 181.007 87.7173 180.224 86.9975 178.551C86.511 177.436 87.468 175.953 88.1476 175.105C88.3348 174.866 88.5348 174.639 88.7467 174.422C88.7467 174.422 84.042 172.814 78.722 171C78.7179 171.004 78.7179 171 78.7179 171C78.1831 170.818 77.6443 170.636 77.1055 170.451C78.9793 169.772 80.2259 169.247 80.5074 168.968C82.156 167.352 82.8839 168.968 83.9294 170.584C84.9749 172.2 85.2966 170.584 86.6638 169.396C88.031 168.208 91.1112 169.841 91.1112 169.841C91.1112 169.841 91.1393 168.766 91.1836 167.053C91.2479 164.524 91.3444 160.589 91.4409 156.65C91.4369 156.646 91.4369 156.646 91.4409 156.646C91.4771 155.163 91.5133 153.68 91.5455 152.274C94.3804 154.456 97.1309 156.597 99.624 158.577C99.628 158.581 99.6361 158.585 99.6361 158.593C105.632 163.352 110.131 167.174 110.763 168.386C111.048 168.936 110.952 170.394 110.566 172.503Z" fill="#2F2E41"/>
<path d="M71.8866 138.21L70.4068 139.175L66.6188 141.648L61.4798 144.997L34.0876 162.854C34.0876 162.854 30.7017 155.921 33.8021 149.894C34.2011 149.131 34.5256 148.331 34.7712 147.506C36.0258 143.183 33.6131 141.308 33.6131 141.308C33.6131 141.308 29.5919 137.377 33.4482 133.753C34.2404 133.01 34.6827 131.487 34.8838 129.531C35.2215 126.316 34.9119 121.936 34.4414 117.957C33.8061 112.563 32.8812 107.909 32.8812 107.909C32.8697 104.674 33.1986 101.447 33.8624 98.2813C34.5982 94.8714 35.7805 91.6313 37.5297 88.9406C38.1712 87.9422 38.9108 87.011 39.7373 86.161C40.8939 84.9698 42.2477 83.9897 43.7384 83.2642C45.9741 82.1815 49.8063 82.832 53.1841 83.3046C53.8637 83.3976 54.5231 83.4865 55.1464 83.5511C55.7645 83.6233 56.386 83.6624 57.0082 83.6682L58.4076 88.7992L58.9384 90.7425L59.2038 91.7161L59.807 93.9301L60.0563 94.8351L64.0694 109.557L67.3467 121.564L69.1562 128.198L71.8624 138.117L71.8866 138.21Z" fill="#3F3D56"/>
<path d="M49.4678 80.1353C56.2092 80.1353 61.6742 74.6446 61.6742 67.8715C61.6742 61.0984 56.2092 55.6077 49.4678 55.6077C42.7264 55.6077 37.2615 61.0984 37.2615 67.8715C37.2615 74.6446 42.7264 80.1353 49.4678 80.1353Z" fill="#A0616A"/>
<path d="M47.1814 78.0086L46.1871 81.2028C43.9824 80.1093 41.7481 78.9961 39.9123 77.3528C38.0765 75.7095 36.6567 73.4419 36.5698 70.9731C36.5249 69.6981 36.8322 68.412 36.6213 67.1539C36.3831 65.7323 35.5097 64.4999 35.11 63.1154C34.736 61.6652 34.8768 60.1295 35.5081 58.7723C36.1394 57.4152 37.2217 56.3215 38.5689 55.6795C40.5922 54.7861 42.9059 55.0368 45.1056 54.8209C47.3052 54.605 49.759 53.6052 50.3781 51.4736C50.6096 50.6766 50.5831 49.7369 51.2917 49.2151C51.6478 48.976 52.0794 48.8777 52.5033 48.9393C52.9273 49.0009 53.3135 49.2179 53.5876 49.5486C54.6235 50.7303 54.3685 52.2863 54.0972 53.7009C55.5237 53.5138 56.8956 53.0293 58.1248 52.2784C59.3541 51.5275 60.4136 50.5269 61.2355 49.3406C61.6214 49.7037 61.9318 50.14 62.1489 50.6243C62.3659 51.1087 62.4853 51.6314 62.5 52.1624C62.5147 52.6933 62.4245 53.222 62.2347 53.7177C62.0448 54.2134 61.7591 54.6664 61.3939 55.0505C62.0875 55.0508 62.761 54.8163 63.3056 54.3847C63.8502 53.9532 64.2342 53.3498 64.3956 52.6721C65.238 53.8411 66.1025 55.0601 66.3734 56.4774C66.6442 57.8947 66.1415 59.571 64.8478 60.1982C64.1875 60.4603 63.4789 60.5769 62.7699 60.54L57.3463 60.6436C55.7335 60.6743 54.1959 61.3343 53.0587 62.4837C51.9215 63.6332 51.274 65.182 51.2531 66.8026C49.6752 66.6503 48.0501 66.5013 46.558 67.169C45.863 67.4629 45.2773 67.9686 44.8834 68.6147C43.8973 70.3165 44.8756 72.0853 45.7426 73.6331C46.4838 74.9563 47.1865 76.5497 46.5714 77.9365" fill="#2F2E41"/>
<path d="M102.903 202.529L80.2724 194.484C79.6661 194.268 79.17 193.819 78.8929 193.236C78.6158 192.652 78.5803 191.982 78.7942 191.373L89.3966 161.267C89.6119 160.658 90.0588 160.159 90.6394 159.881C91.22 159.603 91.8868 159.567 92.4936 159.782L115.124 167.827C115.73 168.043 116.226 168.492 116.503 169.075C116.78 169.659 116.816 170.329 116.602 170.938C116.476 182.25 112.639 192.172 105.999 201.044C105.784 201.653 105.337 202.152 104.757 202.43C104.176 202.708 103.509 202.744 102.903 202.529Z" fill="#E6E6E6"/>
<path d="M94.5464 197.529L82.4984 193.246C81.9306 193.044 81.466 192.623 81.2064 192.077C80.9469 191.53 80.9136 190.903 81.1139 190.332L90.5486 163.542C90.7502 162.971 91.1688 162.505 91.7126 162.244C92.2564 161.983 92.8809 161.95 93.4491 162.151L112.898 169.065C113.466 169.267 113.93 169.688 114.19 170.234C114.449 170.781 114.482 171.408 114.282 171.979C113.168 180.043 111.459 187.277 107.466 191.334C106.568 193.875 104.703 195.954 102.281 197.115C99.8592 198.277 97.0775 198.426 94.5464 197.529Z" fill="white"/>
<path d="M89.7038 176.735C89.7901 176.493 89.9684 176.295 90.1997 176.185C90.4309 176.075 90.6962 176.061 90.9373 176.147L106.087 181.581C106.207 181.623 106.317 181.689 106.411 181.775C106.505 181.86 106.581 181.963 106.636 182.078C106.69 182.194 106.721 182.318 106.728 182.446C106.734 182.573 106.715 182.7 106.673 182.82C106.63 182.94 106.564 183.051 106.479 183.145C106.394 183.239 106.291 183.316 106.177 183.371C106.062 183.425 105.938 183.456 105.811 183.463C105.684 183.469 105.558 183.45 105.438 183.407L90.2883 177.974C90.0474 177.887 89.8506 177.708 89.741 177.476C89.6315 177.243 89.6181 176.977 89.7038 176.735Z" fill="#599ED9"/>
<path d="M103.3 175.964C103.386 175.722 103.565 175.524 103.796 175.414C104.027 175.304 104.293 175.291 104.534 175.377L107.867 176.572C107.986 176.615 108.096 176.681 108.19 176.766C108.284 176.852 108.36 176.955 108.414 177.07C108.469 177.185 108.5 177.31 108.506 177.437C108.512 177.564 108.494 177.691 108.451 177.811C108.409 177.931 108.343 178.042 108.258 178.136C108.173 178.23 108.07 178.307 107.955 178.362C107.841 178.416 107.717 178.447 107.59 178.454C107.464 178.46 107.337 178.441 107.218 178.399L103.885 177.203C103.644 177.117 103.447 176.937 103.337 176.705C103.228 176.473 103.214 176.206 103.3 175.964Z" fill="#599ED9"/>
<path d="M86.8509 184.765C86.9372 184.523 87.1155 184.325 87.3468 184.215C87.578 184.105 87.8433 184.091 88.0844 184.177L103.234 189.611C103.354 189.653 103.464 189.719 103.558 189.805C103.652 189.89 103.728 189.993 103.783 190.108C103.837 190.224 103.868 190.348 103.875 190.476C103.881 190.603 103.862 190.73 103.82 190.85C103.777 190.97 103.711 191.081 103.626 191.175C103.541 191.269 103.438 191.346 103.324 191.401C103.209 191.455 103.085 191.486 102.958 191.493C102.832 191.499 102.705 191.48 102.585 191.437L87.4354 186.004C87.1945 185.917 86.9977 185.738 86.8881 185.506C86.7786 185.273 86.7652 185.007 86.8509 184.765Z" fill="#599ED9"/>
<path d="M88.2773 180.75C88.3636 180.508 88.5419 180.31 88.7732 180.2C89.0044 180.09 89.2697 180.076 89.5108 180.162L104.661 185.596C104.78 185.638 104.89 185.704 104.984 185.79C105.078 185.875 105.155 185.978 105.209 186.093C105.264 186.209 105.295 186.333 105.301 186.461C105.308 186.588 105.289 186.715 105.246 186.835C105.204 186.955 105.138 187.066 105.053 187.16C104.968 187.254 104.865 187.331 104.75 187.386C104.635 187.44 104.511 187.471 104.385 187.478C104.258 187.484 104.131 187.465 104.012 187.422L88.8619 181.989C88.621 181.902 88.4241 181.723 88.3145 181.491C88.2049 181.258 88.1916 180.992 88.2773 180.75Z" fill="#599ED9"/>
<path d="M96.0426 160.22C95.7528 159.227 95.0889 158.388 94.1923 157.879C93.2957 157.371 92.237 157.235 91.2416 157.498C91.0401 157.555 90.8436 157.629 90.6542 157.718L70.6518 139.551L66.2848 147.628L88.9996 163.107C89.4295 163.867 90.0978 164.463 90.9004 164.802C91.7029 165.141 92.5944 165.203 93.4358 164.979C93.9133 164.847 94.3603 164.622 94.7512 164.316C95.1421 164.01 95.4693 163.631 95.7141 163.198C95.9588 162.765 96.1163 162.288 96.1777 161.795C96.239 161.301 96.2029 160.8 96.0715 160.32C96.0623 160.286 96.0527 160.253 96.0426 160.22Z" fill="#A0616A"/>
<path d="M81.1192 147.381L80.3391 148.35L75.7469 154.075L75.1276 154.851C75.1276 154.851 68.5691 150.326 61.4798 144.997C52.971 138.593 43.6981 131.026 44.1123 128.719C44.8723 124.498 43.7987 128.025 41.1166 126.562C38.4385 125.095 41.7197 124.938 43.2116 120.789C44.7075 116.644 43.0186 118.95 39.7815 117.738C37.6222 116.93 38.7521 98.3944 39.7373 86.161C40.8939 84.9698 42.2477 83.9897 43.7384 83.2643C46.4205 81.9634 51.4107 83.1633 55.1464 83.5511C57.2616 99.2146 60.3136 122.126 60.1769 122.849C59.9678 123.952 61.0535 126.154 62.7665 128.53C63.5708 129.653 67.7166 133.923 71.8624 138.117C76.4868 142.795 81.1192 147.381 81.1192 147.381Z" fill="#3F3D56"/>
<path d="M179.71 89.7171H137.136C137.015 89.7174 136.895 89.6937 136.784 89.6475C136.672 89.6012 136.571 89.5333 136.485 89.4476C136.4 89.3619 136.332 89.2602 136.286 89.1481C136.239 89.0361 136.215 88.916 136.215 88.7947C136.215 88.6734 136.239 88.5533 136.286 88.4412C136.332 88.3292 136.4 88.2274 136.485 88.1417C136.571 88.056 136.672 87.9881 136.784 87.9419C136.895 87.8956 137.015 87.872 137.136 87.8722H179.71C179.954 87.8727 180.187 87.9701 180.358 88.1431C180.53 88.316 180.627 88.5504 180.627 88.7947C180.627 89.039 180.53 89.2733 180.358 89.4463C180.187 89.6192 179.954 89.7166 179.71 89.7171Z" fill="#599ED9"/>
<path d="M201.262 98.1505H137.136C137.015 98.1507 136.895 98.1271 136.784 98.0808C136.672 98.0346 136.571 97.9667 136.485 97.881C136.4 97.7953 136.332 97.6935 136.286 97.5815C136.239 97.4694 136.215 97.3493 136.215 97.228C136.215 97.1067 136.239 96.9866 136.286 96.8746C136.332 96.7625 136.4 96.6608 136.485 96.5751C136.571 96.4894 136.672 96.4215 136.784 96.3752C136.895 96.329 137.015 96.3053 137.136 96.3056H201.262C201.506 96.3061 201.739 96.4035 201.91 96.5764C202.082 96.7494 202.179 96.9837 202.179 97.228C202.179 97.4723 202.082 97.7067 201.91 97.8796C201.739 98.0525 201.506 98.15 201.262 98.1505Z" fill="#F2F2F2"/>
<path d="M201.264 104.738H137.134C136.89 104.738 136.657 104.835 136.484 105.008C136.312 105.181 136.215 105.416 136.215 105.661C136.215 105.906 136.312 106.14 136.484 106.313C136.657 106.487 136.89 106.584 137.134 106.584H201.264C201.507 106.584 201.741 106.487 201.914 106.313C202.086 106.14 202.183 105.906 202.183 105.661C202.183 105.416 202.086 105.181 201.914 105.008C201.741 104.835 201.507 104.738 201.264 104.738Z" fill="#F2F2F2"/>
<path d="M201.262 115.017H137.136C137.015 115.017 136.895 114.994 136.784 114.948C136.672 114.901 136.571 114.833 136.485 114.748C136.4 114.662 136.332 114.56 136.286 114.448C136.239 114.336 136.215 114.216 136.215 114.095C136.215 113.973 136.239 113.853 136.286 113.741C136.332 113.629 136.4 113.527 136.485 113.442C136.571 113.356 136.672 113.288 136.784 113.242C136.895 113.196 137.015 113.172 137.136 113.172H201.262C201.506 113.173 201.739 113.27 201.91 113.443C202.082 113.616 202.179 113.85 202.179 114.095C202.179 114.339 202.082 114.573 201.91 114.746C201.739 114.919 201.506 115.017 201.262 115.017Z" fill="#F2F2F2"/>
</g>
<defs>
<clipPath id="clip0_528_6707">
<rect width="215" height="238" fill="white"/>
</clipPath>
</defs>
</svg>
