<svg width="270" height="220" viewBox="0 0 270 220" fill="none" xmlns="http://www.w3.org/2000/svg">
<g clip-path="url(#clip0_528_6815)">
<path d="M215.548 40.0735C214.145 55.5988 210.149 71.9694 203.883 87.7649C196.133 107.298 185.545 124.503 173.264 137.519L172.582 136.922C184.804 123.968 195.344 106.84 203.061 87.3871C210.036 69.8084 214.184 51.5151 215.063 34.493L215.934 34.6394C215.842 36.4372 215.713 38.2486 215.548 40.0735Z" fill="#F2F2F2"/>
<path d="M221.134 130.242C203.883 157.813 182.955 177.513 162.203 185.712L161.783 184.939C182.391 176.797 203.197 157.198 220.369 129.752L221.134 130.242Z" fill="#F2F2F2"/>
<path d="M215.129 59.4032C213.727 74.9285 209.731 91.299 203.464 107.094C195.714 126.628 185.127 143.832 172.845 156.849L172.163 156.252C184.386 143.298 194.925 126.169 202.642 106.717C209.617 89.138 213.765 70.8447 214.645 53.8226L215.515 53.969C215.423 55.7668 215.294 57.5782 215.129 59.4032Z" fill="#F2F2F2"/>
<path d="M21.469 99.2613H10.1506C9.90873 99.2618 9.66994 99.2073 9.45207 99.1019C9.23421 98.9965 9.04294 98.8429 8.89261 98.6526C8.74409 98.4671 8.63932 98.2503 8.58614 98.0184C8.53296 97.7864 8.53276 97.5454 8.58555 97.3134C9.66353 92.5349 9.5958 87.5674 8.38797 82.8204C8.31157 82.5078 8.33005 82.1794 8.44101 81.8775C8.55198 81.5756 8.75035 81.3139 9.0106 81.1263C14.8306 76.921 19.414 77.0431 22.6337 81.4896C22.7788 81.6922 22.8752 81.9259 22.9153 82.1723C23.7756 87.368 23.8232 92.6667 23.0565 97.8771C23.0032 98.2617 22.813 98.6138 22.5211 98.8683C22.2293 99.1228 21.8555 99.2624 21.469 99.2613Z" fill="#E6E6E6"/>
<path d="M17.96 87.8743H14.0664C13.8511 87.8743 13.6446 87.7884 13.4924 87.6354C13.3402 87.4825 13.2546 87.275 13.2546 87.0587C13.2546 86.8424 13.3402 86.635 13.4924 86.482C13.6446 86.3291 13.8511 86.2432 14.0664 86.2432H17.96C18.175 86.2436 18.3811 86.3297 18.533 86.4826C18.6848 86.6355 18.7701 86.8427 18.7701 87.0587C18.7701 87.2747 18.6848 87.4819 18.533 87.6348C18.3811 87.7877 18.175 87.8739 17.96 87.8743Z" fill="white"/>
<path d="M17.96 90.7346H14.0664C13.8511 90.7346 13.6446 90.6487 13.4924 90.4957C13.3402 90.3428 13.2546 90.1353 13.2546 89.919C13.2546 89.7027 13.3402 89.4953 13.4924 89.3423C13.6446 89.1894 13.8511 89.1034 14.0664 89.1034H17.96C18.175 89.1039 18.3811 89.19 18.533 89.3429C18.6848 89.4958 18.7701 89.703 18.7701 89.919C18.7701 90.135 18.6848 90.3422 18.533 90.4951C18.3811 90.648 18.175 90.7341 17.96 90.7346Z" fill="white"/>
<path d="M17.96 93.5949H14.0664C13.8511 93.5949 13.6446 93.5089 13.4924 93.356C13.3402 93.203 13.2546 92.9956 13.2546 92.7793C13.2546 92.563 13.3402 92.3555 13.4924 92.2026C13.6446 92.0496 13.8511 91.9637 14.0664 91.9637H17.96C18.175 91.9642 18.3811 92.0503 18.533 92.2032C18.6848 92.3561 18.7701 92.5633 18.7701 92.7793C18.7701 92.9953 18.6848 93.2025 18.533 93.3554C18.3811 93.5083 18.175 93.5944 17.96 93.5949Z" fill="white"/>
<path d="M227.171 150.031H215.853C215.611 150.032 215.372 149.977 215.154 149.872C214.936 149.766 214.745 149.613 214.595 149.422C214.446 149.237 214.341 149.02 214.288 148.788C214.235 148.556 214.235 148.315 214.288 148.083C215.366 143.305 215.298 138.337 214.09 133.59C214.014 133.278 214.032 132.949 214.143 132.647C214.254 132.345 214.453 132.084 214.713 131.896C220.533 127.691 225.116 127.813 228.336 132.259C228.481 132.462 228.577 132.696 228.618 132.942C229.478 138.138 229.525 143.437 228.759 148.647C228.705 149.031 228.515 149.384 228.223 149.638C227.931 149.893 227.558 150.032 227.171 150.031Z" fill="#E6E6E6"/>
<path d="M223.662 138.644H219.769C219.554 138.644 219.348 138.558 219.196 138.405C219.044 138.252 218.958 138.045 218.958 137.829C218.958 137.613 219.044 137.405 219.196 137.252C219.348 137.1 219.554 137.013 219.769 137.013H223.662C223.877 137.013 224.084 137.099 224.236 137.252C224.388 137.405 224.474 137.612 224.474 137.829C224.474 138.045 224.388 138.252 224.236 138.405C224.084 138.558 223.877 138.644 223.662 138.644Z" fill="white"/>
<path d="M223.662 141.504H219.769C219.554 141.504 219.348 141.418 219.196 141.265C219.044 141.112 218.958 140.905 218.958 140.689C218.958 140.473 219.044 140.266 219.196 140.113C219.348 139.96 219.554 139.874 219.769 139.873H223.662C223.877 139.873 224.084 139.959 224.236 140.112C224.388 140.265 224.474 140.473 224.474 140.689C224.474 140.905 224.388 141.113 224.236 141.266C224.084 141.418 223.877 141.504 223.662 141.504Z" fill="white"/>
<path d="M223.662 144.365H219.769C219.554 144.364 219.348 144.278 219.196 144.125C219.044 143.972 218.958 143.765 218.958 143.549C218.958 143.333 219.044 143.126 219.196 142.973C219.348 142.82 219.554 142.734 219.769 142.734H223.662C223.877 142.734 224.084 142.819 224.236 142.972C224.388 143.125 224.474 143.333 224.474 143.549C224.474 143.765 224.388 143.973 224.236 144.126C224.084 144.279 223.877 144.365 223.662 144.365Z" fill="white"/>
<path d="M270 219.575C270 219.63 269.989 219.686 269.968 219.738C269.947 219.789 269.916 219.836 269.876 219.876C269.837 219.915 269.79 219.947 269.739 219.968C269.687 219.989 269.632 220 269.576 220H0.423505C0.311185 220 0.203469 219.955 0.124046 219.875C0.0446239 219.796 0 219.687 0 219.575C0 219.462 0.0446239 219.353 0.124046 219.274C0.203469 219.194 0.311185 219.149 0.423505 219.149H269.576C269.632 219.149 269.687 219.16 269.739 219.181C269.79 219.202 269.837 219.234 269.876 219.273C269.916 219.313 269.947 219.36 269.968 219.412C269.989 219.463 270 219.519 270 219.575Z" fill="#CCCCCC"/>
<path d="M71.0005 193.525L70.2946 183.661C65.6705 181.338 60.5519 180.185 55.3834 180.301C62.6548 185.948 62.0723 197.233 67.1081 204.957C68.6971 207.354 70.8026 209.36 73.2686 210.829C75.7345 212.297 78.4977 213.189 81.3534 213.438L87.4049 216.936C88.0972 212.339 87.7893 207.647 86.5025 203.181C85.2157 198.716 82.9806 194.584 79.9512 191.069C78.2322 189.115 76.2751 187.386 74.1261 185.923C72.8033 189.738 71.0005 193.525 71.0005 193.525Z" fill="#F2F2F2"/>
<path d="M198.999 194.955L199.705 185.091C204.33 182.769 209.448 181.615 214.617 181.731C207.345 187.378 207.928 198.663 202.892 206.387C201.303 208.784 199.197 210.791 196.731 212.259C194.266 213.727 191.502 214.619 188.647 214.868L182.595 218.366C181.903 213.769 182.211 209.077 183.498 204.611C184.784 200.146 187.019 196.014 190.049 192.5C191.768 190.545 193.725 188.816 195.874 187.353C197.197 191.168 198.999 194.955 198.999 194.955Z" fill="#F2F2F2"/>
<path d="M131.797 83.6423C135.531 83.6423 138.559 80.6009 138.559 76.8492C138.559 73.0974 135.531 70.056 131.797 70.056C128.063 70.056 125.035 73.0974 125.035 76.8492C125.035 80.6009 128.063 83.6423 131.797 83.6423Z" fill="#599ED9"/>
<path d="M135.268 74.018C135.166 73.9205 135.031 73.8661 134.891 73.8661C134.75 73.8661 134.615 73.9205 134.513 74.018C133.078 75.1676 131.79 76.49 130.676 77.9555C130.403 77.424 130.129 76.8926 129.856 76.3611C129.54 75.7477 128.619 76.2896 128.934 76.9025C129.334 77.6798 129.734 78.4571 130.134 79.2345C130.182 79.3138 130.25 79.3794 130.33 79.4249C130.411 79.4704 130.502 79.4943 130.595 79.4943C130.687 79.4943 130.778 79.4704 130.859 79.4249C130.94 79.3794 131.007 79.3138 131.056 79.2345C132.242 77.5553 133.661 76.0543 135.268 74.7765C135.367 74.6755 135.423 74.5392 135.423 74.3972C135.423 74.2553 135.367 74.119 135.268 74.018Z" fill="white"/>
<path d="M101.541 96.112L91.3446 80.0246L103.152 73.6718L106.251 85.9458L128.087 97.7998C128.949 97.4881 129.882 97.4351 130.774 97.6474C131.665 97.8596 132.476 98.3278 133.107 98.995C133.739 99.6621 134.163 100.499 134.329 101.405C134.495 102.31 134.395 103.244 134.041 104.093C133.687 104.942 133.096 105.67 132.338 106.187C131.58 106.704 130.688 106.988 129.772 107.005C128.856 107.022 127.955 106.771 127.179 106.282C126.402 105.793 125.784 105.088 125.4 104.253L101.541 96.112Z" fill="#A0616A"/>
<path d="M83.8948 60.7292C80.691 65.455 92.0766 82.6327 92.0766 82.6327C92.6313 81.4316 97.9334 94.9197 98.8215 94.123C101.345 91.8585 105.296 85.5506 107.493 85.2694C108.749 85.1086 104.58 76.16 104.58 76.16C104.58 76.16 102.675 70.8759 100.089 64.1259C99.3935 62.204 98.2251 60.4901 96.6927 59.1438C95.1603 57.7976 93.3138 56.8627 91.3251 56.4262C91.3251 56.4262 87.0987 56.0035 83.8948 60.7292Z" fill="#3F3D56"/>
<path d="M84.0514 214.696L88.8939 214.696L91.1976 195.93L84.0503 195.931L84.0514 214.696Z" fill="#A0616A"/>
<path d="M82.8159 213.107L84.179 213.107L89.5006 210.933L92.3528 213.107H92.3532C93.965 213.107 95.5108 213.75 96.6506 214.895C97.7903 216.04 98.4307 217.593 98.4308 219.213V219.411L82.8162 219.412L82.8159 213.107Z" fill="#2F2E41"/>
<path d="M106.549 214.696L111.392 214.696L113.696 195.93L106.548 195.931L106.549 214.696Z" fill="#A0616A"/>
<path d="M105.314 213.107L106.677 213.107L111.998 210.933L114.851 213.107H114.851C116.463 213.107 118.009 213.75 119.148 214.895C120.288 216.04 120.929 217.593 120.929 219.213V219.411L105.314 219.412L105.314 213.107Z" fill="#2F2E41"/>
<path d="M108.645 112.105L77.1468 112.896C71.1645 116.161 71.0737 123.226 73.0338 131.614C73.0338 131.614 72.3721 136.6 73.6955 137.929C75.0189 139.259 75.6806 139.259 75.0189 141.586C74.3572 143.912 77.8533 147.713 77.4287 148.139C77.004 148.566 76.0115 150.892 76.0115 150.892L79.32 169.838C79.32 169.838 81.6359 202.744 82.2976 203.409C82.9593 204.074 83.6211 203.409 82.9594 205.071C82.2976 206.733 81.6359 206.068 82.2976 206.733C82.8838 207.368 83.436 208.033 83.9519 208.727H91.951C91.951 208.727 92.554 205.403 92.554 205.071C92.554 204.739 93.2157 202.744 93.2157 202.412C93.2157 202.079 92.6309 201.492 92.6309 201.492C92.4288 200.816 92.2923 200.123 92.2232 199.42C92.2232 198.756 90.2381 173.162 90.2381 173.162L94.2083 139.924L103.803 172.497C103.803 172.497 103.803 201.082 104.465 201.747C105.126 202.412 105.126 202.08 104.796 203.409C104.465 204.739 103.141 204.406 104.134 205.403C105.126 206.4 105.457 204.739 105.126 206.401L104.796 208.062L114.721 208.205C114.721 208.205 116.044 205.403 115.383 204.406C114.721 203.409 114.761 203.681 115.568 202.049C116.375 200.418 116.706 200.085 116.375 199.753C116.044 199.42 116.044 197.653 116.044 197.653L114.39 165.85C114.39 165.85 114.059 132.279 114.059 131.282C114.034 130.769 114.129 130.257 114.334 129.787V128.433L113.067 123.637L108.645 112.105Z" fill="#2F2E41"/>
<path d="M89.7236 46.306C95.1287 46.306 99.5104 41.904 99.5104 36.4739C99.5104 31.0438 95.1287 26.6418 89.7236 26.6418C84.3186 26.6418 79.9369 31.0438 79.9369 36.4739C79.9369 41.904 84.3186 46.306 89.7236 46.306Z" fill="#A0616A"/>
<path d="M94.6171 52.8043C96.7255 54.0636 97.9867 56.3773 98.7108 58.7317C100.051 63.0907 100.858 67.5975 101.113 72.1525L101.878 85.7893L111.349 114.826C103.141 121.804 72.2874 116.412 72.2874 116.412C72.2874 116.412 71.3403 116.095 72.2874 115.143C73.2345 114.192 74.1565 115.035 73.2095 114.083C72.2624 113.132 72.9153 114.192 73.231 113.24C73.5467 112.289 73.231 112.923 72.9153 112.606C72.5996 112.289 75.3592 109.434 75.3592 109.434L72.8336 92.7669L69.6766 59.1475C73.4651 54.3901 81.0841 51.5856 81.0841 51.5856L83.0527 48.0256L92.896 48.8167L94.6171 52.8043Z" fill="#3F3D56"/>
<path d="M97.7913 31.2503C98.552 31.8202 99.1155 32.6155 99.4026 33.5241C99.5129 32.0392 99.5199 30.5484 99.4235 29.0626C99.3082 28.0184 98.5765 27.7836 97.7292 27.5114C96.9641 27.2656 96.0987 26.9878 95.8659 25.9742C92.7895 22.9676 87.4342 23.1192 83.7691 24.168C81.7524 24.7451 80.5919 25.4865 80.4881 25.9209L80.4666 26.0103L80.3847 26.0515C78.8301 26.8323 78.5275 29.2982 78.5475 31.2292C78.5854 34.8674 79.8358 38.9995 80.5402 39.3352C80.5775 39.353 80.5869 39.346 80.6031 39.3325C81.6637 38.4809 82.9578 39.3972 83.5265 39.8953C83.8619 37.6341 84.9419 35.551 86.5939 33.9788C88.246 32.4066 90.3749 31.4358 92.6405 31.2217C93.3804 31.1499 94.1144 31.0262 94.8372 30.8517C95.2038 30.7564 95.5807 30.7067 95.9593 30.7037C96.6112 30.6938 97.2505 30.8845 97.7913 31.2503Z" fill="#2F2E41"/>
<path d="M158.546 119.94L177.372 100.734L182.332 85.3729L174.351 82.1295C170.397 86.1363 166.326 98.4026 166.326 98.4026L153.477 115.728C153.374 115.766 153.272 115.807 153.171 115.855C152.58 116.135 152.07 116.565 151.692 117.101C151.314 117.637 151.079 118.262 151.012 118.916C150.945 119.57 151.046 120.23 151.307 120.833C151.568 121.436 151.979 121.961 152.5 122.357C153.022 122.754 153.637 123.008 154.285 123.096C154.934 123.184 155.594 123.103 156.201 122.86C156.809 122.617 157.344 122.22 157.755 121.709C158.166 121.197 158.438 120.588 158.546 119.94Z" fill="#FFB8B8"/>
<path d="M172.173 83.8866L182.267 86.8202L182.305 86.8129C186.015 86.0891 188.95 79.8945 190.759 74.8253C191.354 73.1533 191.295 71.3167 190.594 69.6868C189.892 68.0569 188.601 66.7553 186.981 66.0451C185.783 65.5294 184.465 65.3607 183.176 65.5581C181.887 65.7556 180.678 66.3113 179.687 67.1625L174.655 71.5163L172.173 83.8866Z" fill="#599ED9"/>
<path d="M163.537 214.125L158.108 214.125L155.526 193.089L163.538 193.09L163.537 214.125Z" fill="#FFB8B8"/>
<path d="M164.922 212.345L163.394 212.345L157.428 209.907L154.231 212.344H154.231C152.424 212.344 150.691 213.065 149.413 214.349C148.136 215.633 147.418 217.373 147.418 219.189V219.411L164.921 219.412L164.922 212.345Z" fill="#2F2E41"/>
<path d="M187.625 214.125L182.196 214.125L179.614 193.089L187.626 193.09L187.625 214.125Z" fill="#FFB8B8"/>
<path d="M189.009 212.345L187.481 212.345L181.516 209.907L178.319 212.344H178.318C176.511 212.344 174.778 213.065 173.501 214.349C172.223 215.633 171.505 217.373 171.505 219.189V219.411L189.009 219.412L189.009 212.345Z" fill="#2F2E41"/>
<path d="M195.902 123.517C195.902 123.517 196.536 131.159 194.951 138.482C193.367 145.806 193.367 166.431 193.367 166.431L189.88 206.622L179.421 205.666L176.569 138.482L166.427 161.089L167.377 164.273L166.111 165.069C166.111 165.069 167.06 171.278 166.427 171.278C165.793 171.278 164.208 172.233 164.208 172.233L165.476 205.03L154.7 204.711L150.896 158.542L155.017 132.114L155.334 127.02L156.76 127.078L157.486 124.95L158.82 121.288L195.902 123.517Z" fill="#2F2E41"/>
<path d="M196.45 125.122L196.506 125.043C199.523 120.799 194.986 110.603 194.302 109.125L197.184 108.185L196.535 102.643L196.227 100.172L198.43 97.9584L198.436 97.9033L199.704 86.759L201.548 79.357C202.242 76.5589 202.183 73.6254 201.376 70.8578C200.569 68.0901 199.044 65.5881 196.956 63.6084L192.696 59.5725L187.517 51.8752H179.167L176.304 57.3084C173.528 57.9529 171.065 59.5554 169.345 61.8365C167.624 64.1177 166.754 66.9331 166.887 69.7922L167.536 84.0418L164.996 101.784L164.994 104.995L162.135 108.186L162.76 111.322L160.584 112.259L159.623 116.763C159.226 117.29 156.601 120.805 156.601 121.766C156.601 121.91 156.707 122.05 156.935 122.204C158.723 123.421 168.608 125.901 172.983 124.142C177.643 122.271 196.167 125.079 196.354 125.107L196.45 125.122Z" fill="#599ED9"/>
<path d="M182.264 49.3904C188.371 49.3904 193.323 44.4163 193.323 38.2803C193.323 32.1443 188.371 27.1701 182.264 27.1701C176.156 27.1701 171.205 32.1443 171.205 38.2803C171.205 44.4163 176.156 49.3904 182.264 49.3904Z" fill="#FFB8B8"/>
<path d="M181.204 49.5703C182.917 49.5528 184.625 49.3882 186.31 49.0786C187.978 48.6925 191.658 45.8337 192.661 44.1448C193.406 42.89 193.853 40.9491 194.097 39.5419C194.427 37.6796 194.363 35.7685 193.911 33.9324C193.458 32.0963 192.627 30.3762 191.471 28.8833C191.025 28.2579 190.42 27.7651 189.718 27.4572C189.656 27.4346 189.592 27.4149 189.528 27.3982C188.511 27.1574 187.589 26.6168 186.88 25.8457C186.742 25.6896 186.594 25.5436 186.435 25.4089C185.64 24.7693 184.705 24.3278 183.708 24.1205C182.096 23.7317 179.791 24.219 176.856 25.57C175.381 26.2488 173.745 26.0594 172.483 25.8186C172.413 25.8068 172.34 25.8138 172.273 25.8389C172.206 25.864 172.146 25.9063 172.1 25.9617C171.58 26.4789 170.883 26.7789 170.151 26.8014C169.704 26.8328 169.249 27.4687 168.701 28.2967C168.577 28.4847 168.432 28.704 168.327 28.8379L168.306 28.5865L168.06 28.874C167.672 29.3258 167.405 29.8687 167.283 30.4522C167.161 31.0356 167.187 31.6407 167.361 32.211C167.534 32.7813 167.848 33.2983 168.273 33.7138C168.699 34.1294 169.222 34.43 169.795 34.5876C170.249 34.6964 170.713 34.7584 171.18 34.7726C171.462 34.7908 171.755 34.8096 172.036 34.8511C172.939 35.0126 173.784 35.4064 174.49 35.9942C175.196 36.582 175.739 37.3437 176.064 38.2048C176.141 38.4038 176.262 38.5824 176.419 38.7269C176.575 38.8713 176.763 38.9776 176.967 39.0377C177.17 39.0978 177.385 39.1101 177.595 39.0735C177.804 39.0369 178.002 38.9525 178.174 38.8267C178.46 38.5911 178.798 38.4285 179.159 38.3526C179.521 38.2766 179.896 38.2898 180.251 38.3908C180.56 38.5532 180.805 38.8174 180.943 39.1392C181.11 39.4974 181.38 39.7974 181.718 40.001C182.869 40.5601 183.014 43.1653 182.662 45.3494C182.323 47.4547 181.584 48.9904 180.866 49.084C180.313 49.156 180.251 49.1972 180.213 49.2967L180.179 49.3858L180.244 49.4666C180.553 49.5702 180.88 49.6056 181.204 49.5703Z" fill="#2F2E41"/>
<path d="M172.029 85.0748L166.713 78.2703C161.299 79.7682 151.691 88.3716 151.691 88.3716L131.96 96.9736C131.302 96.8625 130.626 96.9275 130 97.1623C129.374 97.3971 128.821 97.7933 128.397 98.311C127.972 98.8287 127.691 99.4497 127.581 100.111C127.471 100.773 127.536 101.452 127.771 102.08C128.005 102.709 128.4 103.264 128.916 103.69C129.432 104.116 130.05 104.398 130.709 104.507C131.368 104.617 132.044 104.55 132.669 104.314C133.294 104.078 133.846 103.68 134.269 103.161L160.116 95.9171L172.029 85.0748Z" fill="#FFB8B8"/>
<path d="M170.755 86.6305L179.143 77.2372L179.608 70.5813C179.695 69.2743 179.416 67.969 178.803 66.8129C178.19 65.6568 177.267 64.696 176.139 64.039C174.604 63.1588 172.794 62.8971 171.074 63.3067C169.354 63.7163 167.853 64.7666 166.875 66.2454C163.911 70.7327 160.723 76.7997 162.363 80.2203L162.38 80.255L170.755 86.6305Z" fill="#599ED9"/>
<path d="M93.4482 121.937L71.6487 110.721C70.0981 109.923 69.5844 107.807 70.5037 106.003L84.7175 78.1216C85.6368 76.3183 87.6462 75.5003 89.1968 76.2981L110.996 87.5144C112.547 88.3122 113.061 90.4284 112.141 92.2316L97.9275 120.113C97.0083 121.917 94.9988 122.735 93.4482 121.937Z" fill="#E6E6E6"/>
<path d="M89.7235 116.781L74.9126 109.16C73.4604 108.413 72.9792 106.431 73.8402 104.742L85.6488 81.5785C86.5097 79.8896 88.3917 79.1236 89.8439 79.8709L107.732 89.0749C109.185 89.8221 109.666 91.8038 108.805 93.4927L102.39 106.076C98.5548 113.599 96.1923 120.109 89.7235 116.781Z" fill="white"/>
<path d="M97.0464 104.131L83.928 97.3812C83.7676 97.2664 83.6536 97.0975 83.607 96.9052C83.5603 96.713 83.584 96.5103 83.6738 96.3342C83.7636 96.1581 83.9134 96.0203 84.096 95.946C84.2785 95.8717 84.4816 95.8658 84.6681 95.9295L97.7865 102.679C97.9469 102.794 98.0609 102.963 98.1075 103.155C98.1542 103.347 98.1305 103.55 98.0407 103.726C97.9509 103.902 97.8011 104.04 97.6185 104.114C97.436 104.189 97.2329 104.195 97.0464 104.131Z" fill="#599ED9"/>
<path d="M85.4596 101.79L82.4658 100.25C82.3054 100.135 82.1915 99.9657 82.1448 99.7735C82.0982 99.5813 82.1219 99.3786 82.2117 99.2025C82.3015 99.0264 82.4513 98.8886 82.6338 98.8142C82.8164 98.7399 83.0194 98.7341 83.2059 98.7977L86.1997 100.338C86.3601 100.453 86.474 100.622 86.5207 100.814C86.5673 101.006 86.5436 101.209 86.4538 101.385C86.3641 101.561 86.2142 101.699 86.0317 101.773C85.8491 101.848 85.6461 101.854 85.4596 101.79Z" fill="#599ED9"/>
<path d="M89.2996 107.386L81.0035 103.118C80.8431 103.003 80.7292 102.834 80.6825 102.642C80.6359 102.45 80.6596 102.247 80.7494 102.071C80.8392 101.895 80.989 101.757 81.1716 101.683C81.3541 101.608 81.5572 101.602 81.7436 101.666L90.0397 105.935C90.2001 106.049 90.3141 106.218 90.3607 106.411C90.4074 106.603 90.3837 106.805 90.2939 106.982C90.2041 107.158 90.0543 107.295 89.8717 107.37C89.6892 107.444 89.4861 107.45 89.2996 107.386Z" fill="#599ED9"/>
<path d="M102.238 93.9477L89.1193 87.198C88.9589 87.0832 88.8449 86.9142 88.7983 86.722C88.7516 86.5298 88.7753 86.3271 88.8651 86.151C88.9549 85.9748 89.1047 85.8371 89.2873 85.7627C89.4698 85.6884 89.6729 85.6826 89.8594 85.7463L102.978 92.4959C103.138 92.6108 103.252 92.7797 103.299 92.9719C103.345 93.1642 103.322 93.3669 103.232 93.543C103.142 93.7191 102.992 93.8569 102.81 93.9312C102.627 94.0055 102.424 94.0113 102.238 93.9477Z" fill="#599ED9"/>
<path d="M90.6509 91.6066L87.6571 90.0663C87.4967 89.9515 87.3828 89.7825 87.3361 89.5902C87.2894 89.398 87.3132 89.1953 87.403 89.0192C87.4927 88.8431 87.6426 88.7053 87.8251 88.631C88.0077 88.5567 88.2107 88.5508 88.3972 88.6145L91.391 90.1548C91.5514 90.2696 91.6653 90.4386 91.712 90.6308C91.7586 90.8231 91.7349 91.0258 91.6451 91.2019C91.5553 91.378 91.4055 91.5158 91.223 91.5901C91.0404 91.6644 90.8374 91.6703 90.6509 91.6066Z" fill="#599ED9"/>
<path d="M94.4909 97.2031L86.1948 92.9346C86.0344 92.8197 85.9205 92.6508 85.8738 92.4585C85.8272 92.2663 85.8509 92.0636 85.9407 91.8875C86.0305 91.7114 86.1803 91.5736 86.3628 91.4993C86.5454 91.4249 86.7484 91.4191 86.9349 91.4827L95.231 95.7512C95.3914 95.8661 95.5054 96.035 95.552 96.2273C95.5987 96.4195 95.5749 96.6222 95.4852 96.7983C95.3954 96.9744 95.2455 97.1122 95.063 97.1865C94.8805 97.2608 94.6774 97.2667 94.4909 97.2031Z" fill="#599ED9"/>
<path d="M75.3839 97.6631L70.4591 79.2439L83.6195 76.7411L82.9118 89.3839L100.204 107.271C101.119 107.234 102.026 107.464 102.813 107.935C103.6 108.406 104.233 109.097 104.636 109.924C105.039 110.751 105.194 111.677 105.082 112.591C104.97 113.504 104.596 114.365 104.005 115.069C103.414 115.772 102.632 116.288 101.755 116.553C100.878 116.818 99.9424 116.82 99.0634 116.56C98.1845 116.301 97.3998 115.789 96.8051 115.089C96.2103 114.389 95.8312 113.53 95.7139 112.617L75.3839 97.6631Z" fill="#A0616A"/>
<path d="M69.1124 58.5922C64.6453 62.1351 70.3788 81.9526 70.3788 81.9526C71.2665 80.9739 72.2981 95.4387 73.3831 94.9461C76.4669 93.5463 82.1192 88.7193 84.2982 89.1127C85.5443 89.3377 84.2387 79.545 84.2387 79.545C84.2387 79.545 83.9986 73.93 83.5473 66.7118C83.4574 64.6687 82.8544 62.6817 81.7945 60.9357C80.7345 59.1897 79.2521 57.7416 77.4852 56.726C77.4852 56.726 73.5795 55.0493 69.1124 58.5922Z" fill="#3F3D56"/>
<path d="M143.441 138.546L131.545 132.902C131.291 132.782 131.067 132.606 130.89 132.387C130.713 132.167 130.588 131.91 130.524 131.635C130.459 131.367 130.456 131.086 130.515 130.816C130.574 130.546 130.693 130.292 130.863 130.075C134.309 125.65 136.675 120.476 137.772 114.968C137.854 114.546 138.08 114.166 138.411 113.893C138.741 113.62 139.156 113.47 139.584 113.47C145.651 113.49 150.185 115.716 153.061 120.084C153.212 120.311 153.313 120.569 153.355 120.839C153.397 121.109 153.38 121.385 153.306 121.648C151.641 127.413 149.107 132.888 145.793 137.883C145.547 138.26 145.174 138.535 144.741 138.657C144.309 138.779 143.847 138.74 143.441 138.546Z" fill="#E6E6E6"/>
<path d="M146.941 130.631L137.845 126.316C137.619 126.208 137.444 126.015 137.36 125.778C137.275 125.542 137.288 125.281 137.395 125.054C137.501 124.826 137.694 124.651 137.929 124.566C138.165 124.481 138.424 124.494 138.651 124.601L147.746 128.916C147.858 128.97 147.959 129.044 148.042 129.137C148.126 129.229 148.19 129.336 148.232 129.454C148.274 129.571 148.292 129.695 148.286 129.819C148.28 129.944 148.25 130.066 148.197 130.178C148.144 130.291 148.069 130.392 147.978 130.476C147.886 130.559 147.779 130.624 147.662 130.666C147.545 130.708 147.422 130.726 147.298 130.72C147.174 130.714 147.053 130.684 146.941 130.631Z" fill="white"/>
<path d="M148.354 127.625L139.258 123.31C139.032 123.202 138.857 123.009 138.773 122.772C138.688 122.536 138.701 122.275 138.808 122.048C138.914 121.82 139.107 121.645 139.342 121.56C139.578 121.475 139.837 121.488 140.064 121.595L149.16 125.91C149.386 126.018 149.56 126.211 149.645 126.447C149.729 126.684 149.717 126.945 149.61 127.172C149.503 127.399 149.311 127.575 149.075 127.66C148.839 127.745 148.58 127.732 148.354 127.625Z" fill="white"/>
<path d="M136.2 33.256L135.353 33.3492C131.578 18.4457 124.261 8.12061 114.192 3.49014C101.391 -2.39602 85.5629 1.55665 69.6224 14.6202C53.601 27.7504 39.4178 48.4904 29.6859 73.0208L28.8644 72.6431C38.639 48.0056 52.895 27.1653 69.0062 13.9621C85.1982 0.692172 101.349 -3.28947 114.485 2.7508C124.843 7.51396 132.352 18.0625 136.2 33.256Z" fill="#F2F2F2"/>
<path d="M42.7888 52.666C40.5747 57.3521 38.4686 62.2069 36.5291 67.0954C25.3683 95.2269 19.7125 123.957 20.1747 150.18L19.3024 150.087C18.8398 123.766 24.5119 94.9369 35.7076 66.7177C37.6526 61.8153 39.7647 56.9469 41.9853 52.2476L42.7888 52.666Z" fill="#F2F2F2"/>
<path d="M42.3703 71.9956C40.1561 76.6817 38.05 81.5365 36.1105 86.425C24.9498 114.557 19.294 143.286 19.7561 169.51L18.8839 169.416C18.4212 143.095 24.0933 114.267 35.289 86.0473C37.234 81.145 39.3461 76.2765 41.5667 71.5772L42.3703 71.9956Z" fill="#F2F2F2"/>
<path d="M18.9257 79.0255C19.89 77.5695 19.3192 75.4852 17.651 74.3701C15.9827 73.2551 13.8486 73.5315 12.8844 74.9876C11.9201 76.4436 12.4908 78.5279 14.1591 79.6429C15.8274 80.758 17.9615 80.4816 18.9257 79.0255Z" fill="#CCCCCC"/>
<path d="M224.251 131.608C225.216 130.152 224.645 128.067 222.977 126.952C221.308 125.837 219.174 126.114 218.21 127.57C217.246 129.026 217.816 131.11 219.485 132.225C221.153 133.34 223.287 133.064 224.251 131.608Z" fill="#CCCCCC"/>
</g>
<defs>
<clipPath id="clip0_528_6815">
<rect width="270" height="220" fill="white"/>
</clipPath>
</defs>
</svg>
