<svg width="261" height="226" viewBox="0 0 261 226" fill="none" xmlns="http://www.w3.org/2000/svg">
<g clip-path="url(#clip0_197_1190)">
<path d="M179.406 69.8568C179.397 74.9633 177.873 79.9523 175.028 84.1931C172.182 88.4339 168.142 91.736 163.419 93.6817C158.695 95.6275 153.501 96.1296 148.492 95.1245C143.484 94.1194 138.886 91.6523 135.28 88.0351C131.674 84.4179 129.222 79.8132 128.234 74.8031C127.246 69.793 127.767 64.6027 129.73 59.8885C131.694 55.1742 135.012 51.1478 139.264 48.3184C143.517 45.4889 148.514 43.9836 153.622 43.9926C157.017 43.9898 160.378 44.6576 163.514 45.9575C166.649 47.2575 169.497 49.164 171.893 51.5674C174.289 53.9709 176.186 56.824 177.475 59.9627C178.765 63.1014 179.421 66.4639 179.406 69.8568Z" fill="#BCE2FF"/>
<path d="M222.395 84.907L226.027 77.9753C222.77 74.0443 212.085 69.2766 212.085 69.2766L197.623 56.1191C197.469 55.5321 197.163 54.9959 196.736 54.5647C196.308 54.1335 195.775 53.8223 195.189 53.6626C194.604 53.5029 193.986 53.5002 193.399 53.6548C192.812 53.8095 192.276 54.116 191.845 54.5435C191.414 54.971 191.103 55.5045 190.944 56.0901C190.785 56.6758 190.783 57.293 190.939 57.8797C191.094 58.4663 191.401 59.0017 191.83 59.4319C192.258 59.8621 192.792 60.172 193.378 60.3303L209.002 79.0604L222.395 84.907Z" fill="#9E616A"/>
<path d="M220.635 84.4288L225.764 86.0609C229.493 87.2477 233.511 87.1583 237.184 85.8067C238.295 85.3933 239.268 84.6775 239.993 83.7402C240.719 82.803 241.167 81.6817 241.288 80.5029C241.442 78.904 240.982 77.3064 240.003 76.0332C239.023 74.7601 237.596 73.9063 236.01 73.6445C231.201 72.8545 225.005 72.4649 222.794 75.0945L222.772 75.1211L220.635 84.4288Z" fill="#3F3D56"/>
<path d="M183.75 105.649C198.015 105.649 209.579 94.09 209.579 79.8308C209.579 65.5716 198.015 54.0123 183.75 54.0123C169.484 54.0123 157.92 65.5716 157.92 79.8308C157.92 94.09 169.484 105.649 183.75 105.649Z" fill="white"/>
<path d="M173.208 69.732C172.854 71.6359 172.272 73.4904 171.477 75.2561C166.92 84.8909 179.896 81.7504 184.533 81.7504C189.603 81.7504 194.454 84.4153 193.713 72.5744C193.397 67.5165 189.603 63.3984 184.533 63.3984C180.202 63.3984 174.114 65.3224 173.208 69.732Z" fill="#2F2E41"/>
<path d="M183.773 81.7482C187.893 81.7482 191.233 78.4098 191.233 74.2916C191.233 70.1735 187.893 66.835 183.773 66.835C179.653 66.835 176.314 70.1735 176.314 74.2916C176.314 78.4098 179.653 81.7482 183.773 81.7482Z" fill="#FFB6B6"/>
<path d="M178.707 66.6907C180.015 65.8941 181.512 65.4632 183.043 65.443C184.573 65.4229 186.082 65.8141 187.409 66.576C188.737 67.3378 189.836 68.4422 190.59 69.7737C191.345 71.1052 191.728 72.6149 191.699 74.1449C187.898 75.0989 183.904 75.8289 179.851 74.3731L178.893 72.0312L178.329 74.3748C177.094 74.8792 175.857 75.3059 174.619 74.37C174.569 72.8443 174.92 71.332 175.637 69.9844C176.354 68.6368 177.413 67.5011 178.707 66.6907Z" fill="#2F2E41"/>
<path d="M203.833 96.9985C199.359 102.088 193.061 105.214 186.3 105.703C179.539 106.191 172.857 104.003 167.696 99.609L169.912 93.4298C170.412 92.3323 171.202 91.3917 172.197 90.7089C173.192 90.026 174.354 89.6268 175.558 89.5538L176.968 89.4673L180.329 86.5701C180.329 86.5701 189.384 86.2469 189.25 86.0921L194.735 89.39L194.73 89.3672L196.886 89.4992C198.091 89.5718 199.253 89.971 200.248 90.6538C201.243 91.3367 202.033 92.2775 202.533 93.3752L203.833 96.9985Z" fill="#599ED9"/>
<path d="M181.483 203.386L180.842 194.463C176.637 192.362 171.984 191.319 167.285 191.424C173.896 196.532 173.366 206.741 177.945 213.727C179.389 215.896 181.304 217.711 183.546 219.039C185.788 220.367 188.3 221.174 190.896 221.4L196.398 224.564C197.028 220.406 196.748 216.161 195.578 212.121C194.408 208.082 192.376 204.344 189.621 201.165C188.058 199.397 186.279 197.833 184.325 196.509C183.123 199.96 181.483 203.386 181.483 203.386Z" fill="#BCE2FF"/>
<path d="M14.1989 45.2297L13.5571 36.3068C9.35285 34.2061 4.69912 33.1629 0 33.2679C6.61103 38.3758 6.08149 48.5847 10.66 55.5714C12.1047 57.7395 14.0189 59.5549 16.261 60.883C18.503 62.2111 21.0153 63.0179 23.6116 63.2436L29.1136 66.4075C29.743 62.2495 29.4631 58.0046 28.2931 53.9651C27.1232 49.9256 25.091 46.1877 22.3367 43.0089C20.7739 41.2409 18.9945 39.6766 17.0406 38.353C15.838 41.8043 14.1989 45.2297 14.1989 45.2297Z" fill="#BCE2FF"/>
<path d="M205.552 221.547L201.26 221.546L199.219 205H205.553L205.552 221.547Z" fill="#9E616A"/>
<path d="M206.647 225.705L192.808 225.705V225.53C192.809 224.102 193.376 222.732 194.386 221.723C195.396 220.713 196.766 220.146 198.195 220.146H198.195L200.723 218.229L205.439 220.146L206.647 220.146L206.647 225.705Z" fill="#2F2E41"/>
<path d="M243.376 221.547L239.085 221.546L237.043 205H243.377L243.376 221.547Z" fill="#9E616A"/>
<path d="M244.471 225.705L230.633 225.705V225.53C230.633 224.102 231.2 222.732 232.211 221.723C233.221 220.713 234.591 220.146 236.019 220.146H236.019L238.547 218.229L243.263 220.146L244.471 220.146L244.471 225.705Z" fill="#2F2E41"/>
<path d="M236.849 132.989L240.459 167.266C240.459 167.266 245.264 201.587 244.362 206.323C243.459 211.058 244.587 211.735 244.587 211.735L236.353 211.149C236.353 211.149 236.579 208.217 235.225 206.864C233.871 205.511 234.548 201.452 234.548 201.452L218.575 145.617L208.874 174.933C208.874 174.933 207.295 207.181 207.069 207.632C206.844 208.083 206.167 214.171 206.167 214.171H197.819C197.819 214.171 198.947 210.563 197.368 209.436C195.789 208.308 194.435 209.21 195.789 207.181C197.143 205.151 197.594 202.67 197.143 201.543C196.691 200.415 196.691 195.905 196.691 195.905C196.691 195.905 197.368 135.018 201.203 132.989C205.039 130.959 236.849 132.989 236.849 132.989Z" fill="#2F2E41"/>
<path d="M219.754 63.5864C224.658 63.5864 228.633 59.6132 228.633 54.712C228.633 49.8108 224.658 45.8376 219.754 45.8376C214.851 45.8376 210.876 49.8108 210.876 54.712C210.876 59.6132 214.851 63.5864 219.754 63.5864Z" fill="#9E616A"/>
<path d="M239.917 136.725C222.723 140.274 199.938 134.172 199.938 134.172L206.016 107.835L203.855 80.2736C203.591 76.9031 205.512 73.7437 208.5 72.6241L212.625 71.0796L216.035 66.1997L225.776 66.5192L229.67 71.6423L232.742 73.2718L239.404 76.8035L239.434 76.8182V76.8328L237.343 97.1026L236.082 109.324C236.082 109.324 239.912 123.07 239.126 124.893C238.34 126.713 239.023 125.834 239.214 126.807C239.404 127.78 239.988 127.841 240.076 129.758C240.167 131.672 239.917 136.725 239.917 136.725Z" fill="#3F3D56"/>
<path d="M260.703 226H127.887C127.809 226 127.733 225.968 127.678 225.913C127.622 225.857 127.591 225.781 127.591 225.703C127.591 225.624 127.622 225.548 127.678 225.493C127.733 225.437 127.809 225.406 127.887 225.405H260.703C260.781 225.405 260.857 225.437 260.913 225.492C260.969 225.548 261 225.624 261 225.703C261 225.782 260.969 225.857 260.913 225.913C260.857 225.969 260.781 226 260.703 226Z" fill="#CCCCCC"/>
<path d="M219.322 63.1601C220.88 63.1441 222.433 62.9953 223.964 62.7152C225.481 62.366 228.827 59.7799 229.739 58.2521C230.416 57.117 230.823 55.3612 231.045 54.0883C231.344 52.4036 231.286 50.6748 230.875 49.0139C230.464 47.3529 229.708 45.7969 228.657 44.4464C228.252 43.8807 227.701 43.4349 227.063 43.1563C227.007 43.1359 226.949 43.1181 226.89 43.103C225.966 42.8852 225.127 42.3961 224.483 41.6986C224.358 41.5573 224.223 41.4253 224.078 41.3035C223.355 40.7249 222.506 40.3255 221.599 40.138C220.133 39.7863 218.037 40.227 215.369 41.4492C214.028 42.0632 212.54 41.8919 211.394 41.6741C211.329 41.6634 211.263 41.6697 211.202 41.6924C211.141 41.7151 211.087 41.7534 211.045 41.8035C210.572 42.2713 209.939 42.5427 209.273 42.5631C208.866 42.5915 208.453 43.1667 207.955 43.9158C207.842 44.0858 207.71 44.2843 207.615 44.4054L207.595 44.1779L207.371 44.438C207.019 44.8467 206.776 45.3378 206.665 45.8656C206.554 46.3934 206.578 46.9408 206.736 47.4567C206.893 47.9726 207.179 48.4403 207.566 48.8162C207.953 49.1921 208.429 49.464 208.949 49.6065C209.362 49.705 209.784 49.7611 210.208 49.7739C210.465 49.7904 210.731 49.8074 210.987 49.8449C211.808 49.991 212.577 50.3473 213.218 50.879C213.86 51.4107 214.353 52.0997 214.649 52.8787C214.719 53.0588 214.829 53.2203 214.972 53.351C215.114 53.4816 215.284 53.5778 215.47 53.6322C215.655 53.6866 215.85 53.6976 216.041 53.6645C216.231 53.6314 216.411 53.555 216.567 53.4413C216.827 53.2282 217.134 53.081 217.463 53.0124C217.792 52.9437 218.133 52.9556 218.456 53.0469C218.737 53.1938 218.959 53.4329 219.085 53.724C219.237 54.048 219.482 54.3194 219.789 54.5035C220.836 55.0093 220.968 57.366 220.648 59.3418C220.339 61.2462 219.668 62.6354 219.015 62.7201C218.512 62.7852 218.455 62.8225 218.421 62.9125L218.391 62.9931L218.449 63.0662C218.73 63.1599 219.028 63.1919 219.322 63.1601Z" fill="#2F2E41"/>
<path d="M183.75 105.973C178.577 105.973 173.521 104.44 169.22 101.567C164.919 98.6945 161.567 94.6117 159.587 89.8349C157.608 85.0581 157.09 79.8018 158.099 74.7308C159.108 69.6598 161.599 65.0017 165.257 61.3457C168.914 57.6897 173.574 55.1999 178.647 54.1913C183.721 53.1826 188.979 53.7003 193.758 55.6789C198.537 57.6575 202.622 61.0082 205.495 65.3072C208.369 69.6062 209.903 74.6604 209.903 79.8308C209.895 86.7617 207.137 93.4064 202.234 98.3072C197.331 103.208 190.684 105.965 183.75 105.973ZM183.75 54.3358C178.705 54.3358 173.774 55.8311 169.579 58.6325C165.385 61.4339 162.116 65.4157 160.185 70.0743C158.255 74.7329 157.75 79.8591 158.734 84.8046C159.718 89.7502 162.147 94.293 165.714 97.8585C169.281 101.424 173.826 103.852 178.774 104.836C183.721 105.82 188.85 105.315 193.51 103.385C198.171 101.455 202.155 98.1877 204.957 93.9951C207.76 89.8025 209.256 84.8733 209.256 79.8308C209.248 73.0715 206.558 66.5912 201.777 61.8116C196.995 57.032 190.512 54.3435 183.75 54.3358Z" fill="#3F3D56"/>
<path d="M93.4742 51.9604C107.74 51.9604 119.304 40.401 119.304 26.1419C119.304 11.8827 107.74 0.32338 93.4742 0.32338C79.2089 0.32338 67.6445 11.8827 67.6445 26.1419C67.6445 40.401 79.2089 51.9604 93.4742 51.9604Z" fill="white"/>
<path d="M94.6697 28.7755C99.3213 28.7755 103.092 25.0062 103.092 20.3566C103.092 15.7069 99.3213 11.9376 94.6697 11.9376C90.018 11.9376 86.2471 15.7069 86.2471 20.3566C86.2471 25.0062 90.018 28.7755 94.6697 28.7755Z" fill="#FFB8B8"/>
<path d="M102.085 14.7948C102.085 14.7948 104.278 10.6044 99.4538 10.2234C99.4538 10.2234 95.3409 6.49405 91.1486 9.54164C91.1486 9.54164 88.8619 9.54165 87.6115 12.1282C87.6115 12.1282 85.813 11.4464 85.4178 13.271C85.4178 13.271 84.1018 17.0805 85.4178 20.5091C86.7338 23.9376 87.1709 24.3186 87.1709 24.3186C87.1709 24.3186 86.2476 20.0639 91.5112 19.683C96.7747 19.302 101.604 16.006 102.042 20.1965C102.481 24.3869 102.963 22.4939 102.963 22.4939C102.963 22.4939 107.129 16.5091 102.085 14.7948Z" fill="#2F2E41"/>
<path d="M112.899 43.3095C108.424 48.3991 102.127 51.5255 95.3655 52.014C88.6044 52.5024 81.9224 50.3136 76.7618 45.9201L78.9773 39.7408C79.478 38.6433 80.2681 37.7027 81.2628 37.0199C82.2576 36.3371 83.4196 35.9378 84.6241 35.8649L86.0336 35.7784L89.3943 32.8811C89.3943 32.8811 98.4498 32.5579 98.3154 32.4031L103.801 35.701L103.796 35.6782L105.952 35.8103C107.157 35.8829 108.319 36.282 109.314 36.9649C110.309 37.6477 111.099 38.5885 111.599 39.6862L112.899 43.3095Z" fill="#599ED9"/>
<path d="M93.4743 52.2838C88.3017 52.2838 83.2452 50.7506 78.9443 47.8781C74.6435 45.0055 71.2913 40.9227 69.3118 36.1459C67.3324 31.3691 66.8145 26.1129 67.8236 21.0418C68.8327 15.9708 71.3236 11.3128 74.9812 7.65678C78.6388 4.00077 83.2988 1.511 88.372 0.502306C93.4453 -0.506384 98.7038 0.0113099 103.483 1.98993C108.262 3.96854 112.346 7.31921 115.22 11.6182C118.094 15.9172 119.627 20.9715 119.627 26.1419C119.62 33.0727 116.862 39.7174 111.959 44.6183C107.056 49.5191 100.408 52.2759 93.4743 52.2838ZM93.4743 0.646851C88.4296 0.646849 83.4983 2.14211 79.3039 4.94353C75.1094 7.74496 71.8402 11.7267 69.9097 16.3853C67.9792 21.044 67.4741 26.1701 68.4583 31.1157C69.4424 36.0612 71.8717 40.604 75.4387 44.1696C79.0058 47.7351 83.5506 50.1633 88.4983 51.147C93.446 52.1307 98.5744 51.6259 103.235 49.6962C107.896 47.7665 111.879 44.4988 114.682 40.3061C117.484 36.1135 118.98 31.1843 118.98 26.1419C118.973 19.3825 116.283 12.9022 111.501 8.12264C106.72 3.34306 100.237 0.654518 93.4743 0.646851Z" fill="#3F3D56"/>
<path d="M33.186 92.7122C47.4514 92.7122 59.0157 81.1529 59.0157 66.8937C59.0157 52.6345 47.4514 41.0752 33.186 41.0752C18.9207 41.0752 7.35632 52.6345 7.35632 66.8937C7.35632 81.1529 18.9207 92.7122 33.186 92.7122Z" fill="white"/>
<path d="M21.2142 58.495C22.2823 55.0926 24.7111 51.9721 28.07 50.8219C31.4291 49.6717 36.3477 51.4238 38.8731 53.9395C43.4924 58.5412 44.6196 74.3497 41.446 79.3453C40.8147 79.3119 38.6365 79.2872 37.9977 79.2633L37.0939 76.2523V79.2336C36.076 79.2022 35.0502 79.1805 34.0164 79.1685C30.5503 79.1255 27.2359 77.741 24.7699 75.306C22.304 72.871 20.8785 69.5751 20.7932 66.1113C20.7106 62.7977 20.7933 59.8358 21.2142 58.495Z" fill="#2F2E41"/>
<path d="M32.8029 69.7712C36.8685 69.7712 40.1642 66.4768 40.1642 62.4131C40.1642 58.3493 36.8685 55.055 32.8029 55.055C28.7374 55.055 25.4417 58.3493 25.4417 62.4131C25.4417 66.4768 28.7374 69.7712 32.8029 69.7712Z" fill="#9E616A"/>
<path d="M26.45 55.9509L34.9258 51.7087C36.6586 52.4892 38.151 53.7189 39.2481 55.2702C40.3453 56.8215 41.0072 58.638 41.1653 60.5312L41.3766 63.0607L37.8274 62.1576L37.4385 58.9232L36.8358 61.9053L35.1978 61.4887L35.2134 56.4673L33.5744 61.4851L27.7244 60.1417L26.45 55.9509Z" fill="#2F2E41"/>
<path d="M52.3534 83.9793C47.8785 89.0689 41.5807 92.1953 34.8196 92.6837C28.0585 93.1721 21.3765 90.9833 16.2159 86.5898L18.4314 80.4106C18.9321 79.3131 19.7222 78.3725 20.7169 77.6897C21.7117 77.0069 22.8737 76.6076 24.0782 76.5347L25.4877 76.4482L28.8484 73.5509C28.8484 73.5509 37.9039 73.2277 37.7695 73.0729L43.2547 76.3708L43.2501 76.348L45.4064 76.48C46.611 76.5527 47.7731 76.9518 48.768 77.6347C49.7628 78.3175 50.5528 79.2583 51.0532 80.356L52.3534 83.9793Z" fill="#599ED9"/>
<path d="M33.1861 93.0356C28.0134 93.0356 22.957 91.5024 18.6561 88.6299C14.3552 85.7574 11.0031 81.6746 9.02364 76.8978C7.04417 72.121 6.52625 66.8647 7.53538 61.7937C8.5445 56.7227 11.0354 52.0646 14.6929 48.4086C18.3505 44.7526 23.0106 42.2628 28.0838 41.2541C33.157 40.2454 38.4156 40.7631 43.1945 42.7418C47.9733 44.7204 52.0579 48.071 54.9317 52.3701C57.8054 56.6691 59.3393 61.7233 59.3393 66.8937C59.3314 73.8246 56.5735 80.4693 51.6705 85.3701C46.7675 90.271 40.1199 93.0277 33.1861 93.0356ZM33.1861 41.3987C28.1414 41.3987 23.2101 42.8939 19.0156 45.6954C14.8212 48.4968 11.552 52.4786 9.62152 57.1372C7.69102 61.7958 7.18592 66.922 8.17007 71.8675C9.15423 76.8131 11.5834 81.3559 15.1505 84.9214C18.7176 88.487 23.2624 90.9151 28.2101 91.8988C33.1578 92.8826 38.2862 92.3777 42.9468 90.448C47.6074 88.5184 51.591 85.2506 54.3936 81.058C57.1962 76.8653 58.6921 71.9361 58.6921 66.8937C58.6845 60.1344 55.9948 53.6541 51.2131 48.8745C46.4315 44.0949 39.9483 41.4064 33.1861 41.3987Z" fill="#3F3D56"/>
<path d="M207.605 93.2251L203.695 86.4465C198.629 87.0897 188.878 93.5548 188.878 93.5548L170.016 98.7135C169.437 98.5291 168.82 98.5002 168.227 98.6297C167.634 98.7593 167.086 99.0428 166.637 99.4516C166.188 99.8604 165.855 100.38 165.671 100.959C165.487 101.537 165.459 102.154 165.59 102.746C165.72 103.339 166.004 103.887 166.414 104.335C166.823 104.783 167.344 105.115 167.923 105.298C168.501 105.481 169.118 105.509 169.711 105.378C170.304 105.247 170.852 104.962 171.299 104.552L195.492 101.398L207.605 93.2251Z" fill="#9E616A"/>
<path d="M206.259 94.4538L215.014 87.124L216.287 81.224C216.533 80.0648 216.45 78.86 216.046 77.7458C215.643 76.6315 214.936 75.6522 214.005 74.9185C212.737 73.9323 211.141 73.4645 209.541 73.6095C207.94 73.7545 206.455 74.5016 205.384 75.6996C202.141 79.3357 198.492 84.3573 199.529 87.6318L199.54 87.665L206.259 94.4538Z" fill="#3F3D56"/>
<path d="M72.0735 119.917H39.178C38.2964 119.916 37.4512 119.566 36.8278 118.943C36.2044 118.319 35.8538 117.475 35.8528 116.593V96.3415C35.8538 95.4603 36.2044 94.6155 36.8278 93.9924C37.4512 93.3693 38.2964 93.0188 39.178 93.0178H72.0735C72.9551 93.0188 73.8003 93.3693 74.4237 93.9924C75.0471 94.6155 75.3978 95.4603 75.3988 96.3415V116.593C75.3978 117.475 75.0471 118.319 74.4237 118.943C73.8003 119.566 72.9551 119.916 72.0735 119.917Z" fill="#E6E6E6"/>
<path d="M59.0036 117.309H41.4903C40.6646 117.308 39.8731 116.979 39.2892 116.396C38.7054 115.812 38.3769 115.021 38.376 114.196V98.7391C38.3769 97.9138 38.7054 97.1226 39.2892 96.539C39.8731 95.9555 40.6646 95.6272 41.4903 95.6263H69.7613C70.5869 95.6272 71.3785 95.9555 71.9623 96.5391C72.5461 97.1226 72.8745 97.9139 72.8754 98.7391V103.443C72.8713 107.119 71.4084 110.643 68.8078 113.243C66.2073 115.842 62.6813 117.304 59.0036 117.309Z" fill="white"/>
<path d="M66.9409 104.09H44.3104C44.1147 104.09 43.927 104.012 43.7886 103.874C43.6501 103.736 43.5724 103.548 43.5724 103.352C43.5724 103.157 43.6501 102.969 43.7886 102.831C43.927 102.692 44.1147 102.615 44.3104 102.615H66.9409C67.1367 102.615 67.3244 102.692 67.4628 102.831C67.6012 102.969 67.679 103.157 67.679 103.352C67.679 103.548 67.6012 103.736 67.4628 103.874C67.3244 104.012 67.1367 104.09 66.9409 104.09Z" fill="#599ED9"/>
<path d="M47.8505 107.005H44.3105C44.1147 107.005 43.927 106.927 43.7886 106.789C43.6502 106.651 43.5724 106.463 43.5724 106.267C43.5724 106.072 43.6502 105.884 43.7886 105.746C43.927 105.607 44.1147 105.53 44.3105 105.53H47.8505C48.0462 105.53 48.234 105.607 48.3724 105.746C48.5108 105.884 48.5886 106.072 48.5886 106.267C48.5886 106.463 48.5108 106.651 48.3724 106.789C48.234 106.927 48.0462 107.005 47.8505 107.005Z" fill="#599ED9"/>
<path d="M54.1203 109.92H44.3105C44.115 109.92 43.9277 109.842 43.7896 109.704C43.6515 109.565 43.574 109.378 43.574 109.183C43.574 108.987 43.6515 108.8 43.7896 108.661C43.9277 108.523 44.115 108.445 44.3105 108.445H54.1203C54.3158 108.445 54.5031 108.523 54.6412 108.661C54.7793 108.8 54.8568 108.987 54.8568 109.183C54.8568 109.378 54.7793 109.565 54.6412 109.704C54.5031 109.842 54.3158 109.92 54.1203 109.92Z" fill="#599ED9"/>
<path d="M34.7048 99.5701C38.548 99.5701 41.6635 96.456 41.6635 92.6144C41.6635 88.7729 38.548 85.6588 34.7048 85.6588C30.8616 85.6588 27.7461 88.7729 27.7461 92.6144C27.7461 96.456 30.8616 99.5701 34.7048 99.5701Z" fill="#3F3D56"/>
<path d="M157.495 28.0637H124.6C123.718 28.0627 122.873 27.7122 122.25 27.0891C121.626 26.466 121.276 25.6212 121.275 24.74V4.48817C121.276 3.60696 121.626 2.76212 122.25 2.13901C122.873 1.51589 123.718 1.16538 124.6 1.16438H157.495C158.377 1.16538 159.222 1.51588 159.846 2.139C160.469 2.76212 160.82 3.60696 160.821 4.48817V24.7399C160.82 25.6212 160.469 26.466 159.846 27.0891C159.222 27.7122 158.377 28.0628 157.495 28.0637Z" fill="#E6E6E6"/>
<path d="M144.425 25.4552H126.912C126.087 25.4543 125.295 25.126 124.711 24.5425C124.127 23.9589 123.799 23.1677 123.798 22.3423V6.88575C123.799 6.06044 124.127 5.26921 124.711 4.68564C125.295 4.10208 126.087 3.77383 126.912 3.77292H155.183C156.009 3.77383 156.8 4.10209 157.384 4.68566C157.968 5.26923 158.296 6.06046 158.297 6.88575V11.5895C158.293 15.2657 156.83 18.79 154.23 21.3895C151.629 23.9889 148.103 25.451 144.425 25.4552Z" fill="white"/>
<path d="M152.363 12.2366H129.732C129.537 12.2366 129.349 12.1589 129.21 12.0205C129.072 11.8822 128.994 11.6945 128.994 11.4989C128.994 11.3032 129.072 11.1156 129.21 10.9772C129.349 10.8388 129.537 10.7611 129.732 10.7611H152.363C152.559 10.7611 152.746 10.8388 152.885 10.9772C153.023 11.1156 153.101 11.3032 153.101 11.4989C153.101 11.6945 153.023 11.8822 152.885 12.0205C152.746 12.1589 152.559 12.2366 152.363 12.2366Z" fill="#599ED9"/>
<path d="M133.272 15.1517H129.732C129.537 15.1517 129.349 15.074 129.21 14.9357C129.072 14.7973 128.994 14.6096 128.994 14.414C128.994 14.2183 129.072 14.0307 129.21 13.8923C129.349 13.7539 129.537 13.6762 129.732 13.6762H133.272C133.468 13.6762 133.656 13.7539 133.794 13.8923C133.933 14.0307 134.01 14.2183 134.01 14.414C134.01 14.6096 133.933 14.7973 133.794 14.9357C133.656 15.074 133.468 15.1517 133.272 15.1517Z" fill="#599ED9"/>
<path d="M139.542 18.0669H129.732C129.537 18.0665 129.35 17.9886 129.211 17.8503C129.073 17.712 128.996 17.5245 128.996 17.3291C128.996 17.1337 129.073 16.9463 129.211 16.808C129.35 16.6697 129.537 16.5918 129.732 16.5914H139.542C139.738 16.5914 139.926 16.6691 140.064 16.8075C140.203 16.9458 140.28 17.1335 140.28 17.3291C140.28 17.5248 140.203 17.7125 140.064 17.8508C139.926 17.9892 139.738 18.0669 139.542 18.0669Z" fill="#599ED9"/>
<path d="M120.127 31.9738C123.97 31.9738 127.085 28.8596 127.085 25.0181C127.085 21.1766 123.97 18.0624 120.127 18.0624C116.283 18.0624 113.168 21.1766 113.168 25.0181C113.168 28.8596 116.283 31.9738 120.127 31.9738Z" fill="#3F3D56"/>
</g>
<defs>
<clipPath id="clip0_197_1190">
<rect width="261" height="226" fill="white"/>
</clipPath>
</defs>
</svg>
