<svg xmlns="http://www.w3.org/2000/svg" width="1279.997" height="1279.997" fill-rule="evenodd" clip-rule="evenodd" image-rendering="optimizeQuality" shape-rendering="geometricPrecision" text-rendering="geometricPrecision" viewBox="0 0 13333.33 13333.33" id="instagram-logo"><defs><linearGradient id="a" x1="9425.49" x2="3907.84" y1="1689.61" y2="11643.72" gradientUnits="userSpaceOnUse"><stop offset="0" stop-color="#4845a2"></stop><stop offset=".278" stop-color="#a844a1"></stop><stop offset=".302" stop-color="#a844a1"></stop><stop offset=".38" stop-color="#a844a1"></stop><stop offset=".6" stop-color="#d7233e"></stop><stop offset=".6" stop-color="#d7233e"></stop><stop offset=".871" stop-color="#f8a325"></stop><stop offset="1" stop-color="#f8dd25"></stop></linearGradient></defs><rect width="13333.33" height="13333.33" fill="none"></rect><path fill="url(#a)" d="M4365.91 2471.84l4601.52 0c1029.13,0 1869.24,842.02 1869.24,1869.25l0 4649.24c0,1029.14 -840.11,1871.15 -1869.24,1871.15l-4601.52 0c-1027.22,0 -1869.24,-842.02 -1869.24,-1871.15l0 -4649.24c0,-1027.23 842.02,-1869.25 1869.24,-1869.25z"></path><path fill="#fff" d="M8196.04 3877.12l-3058.76 0c-683.54,0 -1242.98,559.44 -1242.98,1242.98l0 3091.22c0,683.55 559.43,1242.98 1242.98,1242.98l3058.76 0c683.55,0 1242.98,-559.44 1242.98,-1242.98l0 -3091.22c0,-683.55 -559.44,-1242.98 -1242.98,-1242.98zm729.37 4047.8l0 0c0,555.62 -456.33,1011.95 -1011.95,1011.95l-2491.69 0c-557.53,0 -1011.95,-456.33 -1011.95,-1011.95l0 -2516.51c0,-557.53 454.42,-1011.95 1011.95,-1011.95l2491.69 0c555.62,0 1011.95,454.42 1011.95,1011.95l0 2516.51z"></path><path fill="#fff" fill-rule="nonzero" d="M6666.67 5290.03c-758.01,0 -1374.73,618.63 -1374.73,1376.63 0,758.01 616.72,1374.73 1374.73,1374.73 758.01,0 1376.63,-616.72 1376.63,-1374.73 0,-758.01 -618.62,-1376.63 -1376.63,-1376.63zm0 2287.39l0 0c-502.16,0 -910.76,-408.6 -910.76,-910.76 0,-502.16 408.6,-910.75 910.76,-910.75 502.15,0 910.75,408.59 910.75,910.75 0,502.16 -408.6,910.76 -910.75,910.76z"></path><path fill="#fff" d="M9436.86 3868.69c156.57,0 282.58,-126.02 282.58,-280.67 0,-156.56 -126.02,-282.58 -282.58,-282.58 -154.66,0 -280.67,126.02 -280.67,282.58 0,154.66 126.02,280.67 280.67,280.67z"></path></svg>