<svg width="20" height="20" viewBox="0 0 20 20" fill="none" xmlns="http://www.w3.org/2000/svg">
<g clip-path="url(#clip0_3236_7073)">
<path d="M13.3333 17.5V15.8333C13.3333 14.9493 12.9821 14.1014 12.3569 13.4763C11.7318 12.8512 10.884 12.5 9.99992 12.5H4.16659C3.28253 12.5 2.43468 12.8512 1.80956 13.4763C1.18444 14.1014 0.833252 14.9493 0.833252 15.8333V17.5" stroke="#599ED9" stroke-width="2" stroke-linecap="round" stroke-linejoin="round"/>
<path d="M7.08333 9.16667C8.92428 9.16667 10.4167 7.67428 10.4167 5.83333C10.4167 3.99238 8.92428 2.5 7.08333 2.5C5.24238 2.5 3.75 3.99238 3.75 5.83333C3.75 7.67428 5.24238 9.16667 7.08333 9.16667Z" stroke="#599ED9" stroke-width="2" stroke-linecap="round" stroke-linejoin="round"/>
<path d="M16.6667 6.66699V11.667" stroke="#599ED9" stroke-width="2" stroke-linecap="round" stroke-linejoin="round"/>
<path d="M19.1667 9.16699H14.1667" stroke="#599ED9" stroke-width="2" stroke-linecap="round" stroke-linejoin="round"/>
</g>
<defs>
<clipPath id="clip0_3236_7073">
<rect width="20" height="20" fill="white"/>
</clipPath>
</defs>
</svg>
