<svg width="41" height="40" viewBox="0 0 41 40" fill="none" xmlns="http://www.w3.org/2000/svg">
<rect x="1" y="0.5" width="39" height="39" rx="3.5" fill="white"/>
<rect x="1" y="0.5" width="39" height="39" rx="3.5" stroke="#E6E6E6"/>
<path d="M28.6437 25.5861C28.3385 26.2848 27.9772 26.928 27.5586 27.5193C26.9881 28.3255 26.5209 28.8835 26.1609 29.1934C25.6027 29.702 25.0048 29.9625 24.3644 29.9773C23.9047 29.9773 23.3504 29.8477 22.705 29.5847C22.0576 29.323 21.4626 29.1934 20.9186 29.1934C20.348 29.1934 19.7361 29.323 19.0815 29.5847C18.426 29.8477 17.8979 29.9847 17.4942 29.9983C16.8801 30.0242 16.2681 29.7563 15.6571 29.1934C15.2672 28.8563 14.7795 28.2786 14.1952 27.4601C13.5683 26.586 13.0529 25.5725 12.6492 24.417C12.2168 23.1689 12 21.9603 12 20.7902C12 19.4498 12.2923 18.2938 12.8777 17.3251C13.3377 16.547 13.9498 15.9332 14.7158 15.4826C15.4818 15.0319 16.3095 14.8023 17.2009 14.7876C17.6886 14.7876 18.3282 14.9371 19.123 15.231C19.9156 15.5258 20.4245 15.6753 20.6476 15.6753C20.8144 15.6753 21.3798 15.5005 22.3382 15.1519C23.2445 14.8287 24.0094 14.6949 24.636 14.7476C26.334 14.8834 27.6097 15.5467 28.4581 16.7418C26.9395 17.6536 26.1883 18.9307 26.2032 20.5691C26.2169 21.8452 26.6841 22.9071 27.6022 23.7503C28.0183 24.1417 28.483 24.4441 29 24.6589C28.8879 24.9812 28.7695 25.2898 28.6437 25.5861ZM24.7494 10.4001C24.7494 11.4003 24.3806 12.3343 23.6456 13.1987C22.7586 14.2263 21.6857 14.8201 20.5223 14.7264C20.5075 14.6064 20.4989 14.4801 20.4989 14.3474C20.4989 13.3872 20.9207 12.3596 21.6698 11.5193C22.0438 11.0939 22.5194 10.7402 23.0962 10.458C23.6718 10.18 24.2162 10.0263 24.7282 10C24.7431 10.1337 24.7494 10.2674 24.7494 10.4001V10.4001Z" fill="black"/>
</svg>
