<svg width="16" height="16" viewBox="0 0 16 16" fill="none" xmlns="http://www.w3.org/2000/svg">
<path d="M13.3335 4.66602H2.66683C1.93045 4.66602 1.3335 5.26297 1.3335 5.99935V12.666C1.3335 13.4024 1.93045 13.9993 2.66683 13.9993H13.3335C14.0699 13.9993 14.6668 13.4024 14.6668 12.666V5.99935C14.6668 5.26297 14.0699 4.66602 13.3335 4.66602Z" stroke="#599ED9" stroke-width="1.5" stroke-linecap="round" stroke-linejoin="round"/>
<path d="M10.6668 14V3.33333C10.6668 2.97971 10.5264 2.64057 10.2763 2.39052C10.0263 2.14048 9.68712 2 9.3335 2H6.66683C6.31321 2 5.97407 2.14048 5.72402 2.39052C5.47397 2.64057 5.3335 2.97971 5.3335 3.33333V14" stroke="#599ED9" stroke-width="1.5" stroke-linecap="round" stroke-linejoin="round"/>
</svg>
