<?xml version="1.0" encoding="UTF-8" standalone="no"?>
<svg
   xmlns:dc="http://purl.org/dc/elements/1.1/"
   xmlns:cc="http://creativecommons.org/ns#"
   xmlns:rdf="http://www.w3.org/1999/02/22-rdf-syntax-ns#"
   xmlns:svg="http://www.w3.org/2000/svg"
   xmlns="http://www.w3.org/2000/svg"
   viewBox="0 0 32 32"
   height="32"
   width="32"
   xml:space="preserve"
   id="svg2"
   version="1.1"><metadata
     id="metadata8"><rdf:RDF><cc:Work
         rdf:about=""><dc:format>image/svg+xml</dc:format><dc:type
           rdf:resource="http://purl.org/dc/dcmitype/StillImage" /></cc:Work></rdf:RDF></metadata><defs
     id="defs6" /><g
     transform="matrix(1.3333333,0,0,-1.3333333,0,32)"
     id="g10"><g
       transform="translate(1,2)"
       id="g12"><path
         id="path14"
         style="fill:#8f8b8f;fill-opacity:1;fill-rule:nonzero;stroke:none"
         d="m 2,17 h 18 v 2 H 2 Z m 18,0 c 0.552284,0 1,-0.447716 1,-1 h 2 c 0,1.656855 -1.343145,3 -3,3 z m 1,-1 V 4 h 2 V 16 Z M 21,4 C 21,3.447715 20.552284,3 20,3 V 1 c 1.656855,0 3,1.343145 3,3 z M 20,3 H 2 V 1 H 20 Z M 2,3 C 1.447715,3 1,3.447715 1,4 H -1 C -1,2.343145 0.343146,1 2,1 Z M 1,4 V 16 H -1 V 4 Z m 0,12 c 0,0.552284 0.447715,1 1,1 v 2 c -1.656854,0 -3,-1.343145 -3,-3 z" /></g><g
       transform="translate(1,12)"
       id="g16"><path
         id="path18"
         style="fill:#8f8b8f;fill-opacity:1;fill-rule:nonzero;stroke:none"
         d="M 0,3 C -0.552285,3 -1,2.552285 -1,2 -1,1.447715 -0.552285,1 0,1 Z M 22,1 c 0.552284,0 1,0.447715 1,1 0,0.552285 -0.447716,1 -1,1 z M 0,1 H 22 V 3 H 0 Z" /></g></g></svg>