<svg width="20" height="20" viewBox="0 0 20 20" fill="none" xmlns="http://www.w3.org/2000/svg">
<path d="M11.6668 18.7503L9.3335 15.8337H5.00016C4.53993 15.8337 4.16683 15.4606 4.16683 15.0003V5.91913C4.16683 5.45889 4.53993 5.08579 5.00016 5.08579H18.3335C18.7937 5.08579 19.1668 5.45889 19.1668 5.91913V15.0003C19.1668 15.4606 18.7937 15.8337 18.3335 15.8337H14.0002L11.6668 18.7503ZM13.1991 14.167H17.5002V6.75246H5.8335V14.167H9.3335H10.1346L11.6668 16.0823L13.1991 14.167ZM1.66683 1.66699H15.8335V3.33366H2.50016V12.5003H0.833496V2.50033C0.833496 2.04009 1.2066 1.66699 1.66683 1.66699Z" fill="#757275"/>
</svg>
