<svg width="20" height="20" viewBox="0 0 20 20" fill="none" xmlns="http://www.w3.org/2000/svg">
<g clip-path="url(#clip0_2792_6966)">
<path d="M9.1665 3.33301H3.33317C2.89114 3.33301 2.46722 3.5086 2.15466 3.82116C1.8421 4.13372 1.6665 4.55765 1.6665 4.99967V16.6663C1.6665 17.1084 1.8421 17.5323 2.15466 17.8449C2.46722 18.1574 2.89114 18.333 3.33317 18.333H14.9998C15.4419 18.333 15.8658 18.1574 16.1783 17.8449C16.4909 17.5323 16.6665 17.1084 16.6665 16.6663V10.833" stroke="#8F8B8F" stroke-width="2" stroke-linecap="round" stroke-linejoin="round"/>
<path d="M15.4165 2.0832C15.748 1.75168 16.1977 1.56543 16.6665 1.56543C17.1353 1.56543 17.585 1.75168 17.9165 2.0832C18.248 2.41472 18.4343 2.86436 18.4343 3.3332C18.4343 3.80204 18.248 4.25168 17.9165 4.5832L9.99984 12.4999L6.6665 13.3332L7.49984 9.99986L15.4165 2.0832Z" stroke="#8F8B8F" stroke-width="2" stroke-linecap="round" stroke-linejoin="round"/>
</g>
<defs>
<clipPath id="clip0_2792_6966">
<rect width="20" height="20" fill="white"/>
</clipPath>
</defs>
</svg>
