<svg width="40" height="40" viewBox="0 0 40 40" fill="none" xmlns="http://www.w3.org/2000/svg">
<rect x="0.5" y="0.5" width="39" height="39" rx="3.5" fill="white"/>
<rect x="0.5" y="0.5" width="39" height="39" rx="3.5" stroke="#E6E6E6"/>
<g clip-path="url(#clip0_2067_15429)">
<path fill-rule="evenodd" clip-rule="evenodd" d="M29.6 20.2273C29.6 19.5182 29.5364 18.8364 29.4182 18.1819H20V22.0501H25.3818C25.15 23.3001 24.4455 24.3592 23.3864 25.0682V27.5773H26.6182C28.5091 25.8364 29.6 23.2728 29.6 20.2273Z" fill="#4285F4"/>
<path fill-rule="evenodd" clip-rule="evenodd" d="M19.9998 30C22.6998 30 24.9635 29.1046 26.618 27.5773L23.3862 25.0682C22.4907 25.6682 21.3453 26.0228 19.9998 26.0228C17.3953 26.0228 15.1907 24.2637 14.4044 21.9H11.0635V24.4909C12.7089 27.7591 16.0907 30 19.9998 30Z" fill="#34A853"/>
<path fill-rule="evenodd" clip-rule="evenodd" d="M14.4045 21.9001C14.2045 21.3001 14.0909 20.6592 14.0909 20.0001C14.0909 19.341 14.2045 18.7001 14.4045 18.1001V15.5092H11.0636C10.3864 16.8592 10 18.3864 10 20.0001C10 21.6137 10.3864 23.141 11.0636 24.491L14.4045 21.9001Z" fill="#FBBC05"/>
<path fill-rule="evenodd" clip-rule="evenodd" d="M19.9998 13.9773C21.468 13.9773 22.7862 14.4818 23.8226 15.4727L26.6907 12.6045C24.9589 10.9909 22.6953 10 19.9998 10C16.0907 10 12.7089 12.2409 11.0635 15.5091L14.4044 18.1C15.1907 15.7364 17.3953 13.9773 19.9998 13.9773Z" fill="#EA4335"/>
</g>
<defs>
<clipPath id="clip0_2067_15429">
<rect x="10" y="10" width="20" height="20" rx="6" fill="white"/>
</clipPath>
</defs>
</svg>
