<svg width="41" height="40" viewBox="0 0 41 40" fill="none" xmlns="http://www.w3.org/2000/svg">
<rect x="1" y="0.5" width="39" height="39" rx="3.5" fill="white"/>
<rect x="1" y="0.5" width="39" height="39" rx="3.5" stroke="#E6E6E6"/>
<g clip-path="url(#clip0_2067_15447)">
<path d="M10.5 12.6681C10.5 12.0246 10.7252 11.4937 11.1757 11.0754C11.6261 10.6571 12.2117 10.448 12.9324 10.448C13.6403 10.448 14.213 10.6539 14.6506 11.0658C15.101 11.4905 15.3263 12.0439 15.3263 12.726C15.3263 13.3438 15.1075 13.8585 14.6699 14.2704C14.2194 14.6951 13.6274 14.9075 12.8938 14.9075H12.8745C12.1667 14.9075 11.594 14.6951 11.1564 14.2704C10.7188 13.8457 10.5 13.3116 10.5 12.6681ZM10.751 29.56V16.6642H15.0367V29.56H10.751ZM17.4112 29.56H21.6969V22.3592C21.6969 21.9087 21.7484 21.5612 21.8514 21.3167C22.0315 20.8791 22.305 20.5091 22.6718 20.2067C23.0386 19.9042 23.4987 19.753 24.0521 19.753C25.4936 19.753 26.2143 20.7247 26.2143 22.6681V29.56H30.5V22.1661C30.5 20.2614 30.0496 18.8167 29.1486 17.8322C28.2477 16.8476 27.0573 16.3553 25.5772 16.3553C23.917 16.3553 22.6236 17.0696 21.6969 18.4982V18.5368H21.6776L21.6969 18.4982V16.6642H17.4112C17.4369 17.076 17.4498 18.3566 17.4498 20.5059C17.4498 22.6552 17.4369 25.6732 17.4112 29.56Z" fill="#0A66C2"/>
</g>
<defs>
<clipPath id="clip0_2067_15447">
<rect width="20" height="20" fill="white" transform="translate(10.5 10)"/>
</clipPath>
</defs>
</svg>
