<svg width="16" height="16" viewBox="0 0 16 16" fill="none" xmlns="http://www.w3.org/2000/svg">
<g clip-path="url(#clip0_2305_5700)">
<path d="M14 6.66602C14 11.3327 8 15.3327 8 15.3327C8 15.3327 2 11.3327 2 6.66602C2 5.07472 2.63214 3.54859 3.75736 2.42337C4.88258 1.29816 6.4087 0.666016 8 0.666016C9.5913 0.666016 11.1174 1.29816 12.2426 2.42337C13.3679 3.54859 14 5.07472 14 6.66602Z" stroke="#599ED9" stroke-width="1.5" stroke-linecap="round" stroke-linejoin="round"/>
<path d="M8 8.66602C9.10457 8.66602 10 7.77059 10 6.66602C10 5.56145 9.10457 4.66602 8 4.66602C6.89543 4.66602 6 5.56145 6 6.66602C6 7.77059 6.89543 8.66602 8 8.66602Z" stroke="#599ED9" stroke-width="1.5" stroke-linecap="round" stroke-linejoin="round"/>
</g>
<defs>
<clipPath id="clip0_2305_5700">
<rect width="16" height="16" fill="white"/>
</clipPath>
</defs>
</svg>
