<svg width="81" height="81" viewBox="0 0 81 81" fill="none" xmlns="http://www.w3.org/2000/svg">
<path d="M40.5 40.5C47.9558 40.5 54 34.4558 54 27C54 19.5442 47.9558 13.5 40.5 13.5C33.0442 13.5 27 19.5442 27 27C27 34.4558 33.0442 40.5 40.5 40.5Z" fill="#AFB1B8"/>
<path d="M67.5 64.125V67.5C67.5 68.3951 67.1444 69.2536 66.5115 69.8865C65.8786 70.5194 65.0201 70.875 64.125 70.875H16.875C15.9799 70.875 15.1215 70.5194 14.4885 69.8865C13.8556 69.2536 13.5 68.3951 13.5 67.5V64.125C13.5 58.7544 15.6335 53.6037 19.4311 49.8061C23.2287 46.0085 28.3794 43.875 33.75 43.875H47.25C52.6206 43.875 57.7713 46.0085 61.5689 49.8061C65.3665 53.6037 67.5 58.7544 67.5 64.125Z" fill="#AFB1B8"/>
</svg>
