<svg width="25" height="24" viewBox="0 0 25 24" fill="none" xmlns="http://www.w3.org/2000/svg">
<g clip-path="url(#clip0_1850_1599)">
<path d="M16.5 21V19C16.5 17.9391 16.0786 16.9217 15.3284 16.1716C14.5783 15.4214 13.5609 15 12.5 15H5.5C4.43913 15 3.42172 15.4214 2.67157 16.1716C1.92143 16.9217 1.5 17.9391 1.5 19V21" stroke="#8F8B8F" stroke-width="2" stroke-linecap="round" stroke-linejoin="round"/>
<path d="M9 11C11.2091 11 13 9.20914 13 7C13 4.79086 11.2091 3 9 3C6.79086 3 5 4.79086 5 7C5 9.20914 6.79086 11 9 11Z" stroke="#8F8B8F" stroke-width="2" stroke-linecap="round" stroke-linejoin="round"/>
<path d="M17.5 6L20.5 3L23.5 6" stroke="#8F8B8F" stroke-width="2" stroke-linecap="round" stroke-linejoin="round"/>
<path d="M14.5 12L18.3182 12C18.8968 12 19.4518 11.7629 19.861 11.341C20.2701 10.919 20.5 10.3467 20.5 9.75L20.5 3" stroke="#8F8B8F" stroke-width="2" stroke-linecap="round" stroke-linejoin="round"/>
</g>
<defs>
<clipPath id="clip0_1850_1599">
<rect width="24" height="24" fill="white" transform="translate(0.5)"/>
</clipPath>
</defs>
</svg>
