<svg width="20" height="20" viewBox="0 0 20 20" fill="none" xmlns="http://www.w3.org/2000/svg">
<g clip-path="url(#clip0_1850_2923)">
<path d="M13.3335 17.5V15.8333C13.3335 14.9493 12.9823 14.1014 12.3572 13.4763C11.7321 12.8512 10.8842 12.5 10.0002 12.5H4.16683C3.28277 12.5 2.43493 12.8512 1.80981 13.4763C1.18469 14.1014 0.833496 14.9493 0.833496 15.8333V17.5" stroke="#599ED9" stroke-width="2" stroke-linecap="round" stroke-linejoin="round"/>
<path d="M7.08333 9.16667C8.92428 9.16667 10.4167 7.67428 10.4167 5.83333C10.4167 3.99238 8.92428 2.5 7.08333 2.5C5.24238 2.5 3.75 3.99238 3.75 5.83333C3.75 7.67428 5.24238 9.16667 7.08333 9.16667Z" stroke="#599ED9" stroke-width="2" stroke-linecap="round" stroke-linejoin="round"/>
<path d="M15 6.66699L19.1667 10.8337" stroke="#599ED9" stroke-width="2" stroke-linecap="round" stroke-linejoin="round"/>
<path d="M19.1667 6.66699L15 10.8337" stroke="#599ED9" stroke-width="2" stroke-linecap="round" stroke-linejoin="round"/>
</g>
<defs>
<clipPath id="clip0_1850_2923">
<rect width="20" height="20" fill="white"/>
</clipPath>
</defs>
</svg>
