<svg width="20" height="20" viewBox="0 0 20 20" fill="none" xmlns="http://www.w3.org/2000/svg">
<path d="M10.0001 1.66699C5.41675 1.66699 1.66675 5.41699 1.66675 10.0003C1.66675 14.5837 5.41675 18.3337 10.0001 18.3337C14.5834 18.3337 18.3334 14.5837 18.3334 10.0003C18.3334 5.41699 14.5834 1.66699 10.0001 1.66699ZM10.0001 3.33366C11.5001 3.33366 12.9167 3.83366 14.0834 4.75033L4.75008 14.0837C3.83341 12.917 3.33341 11.5003 3.33341 10.0003C3.33341 6.33366 6.33342 3.33366 10.0001 3.33366ZM10.0001 16.667C8.50008 16.667 7.08342 16.167 5.91675 15.2503L15.2501 5.91699C16.1667 7.08366 16.6667 8.50033 16.6667 10.0003C16.6667 13.667 13.6667 16.667 10.0001 16.667Z" fill="#599ED9"/>
</svg>
