<svg width="20" height="20" viewBox="0 0 20 20" fill="none" xmlns="http://www.w3.org/2000/svg">
<path d="M12.1667 6.6671H17.5002C18.4207 6.6671 19.1668 7.4133 19.1668 8.33375V10.0874C19.1668 10.3051 19.1242 10.5207 19.0413 10.722L16.4627 16.9844C16.3341 17.2967 16.0297 17.5004 15.6921 17.5004H1.66683C1.2066 17.5004 0.833496 17.1273 0.833496 16.6671V8.33375C0.833496 7.87353 1.2066 7.50044 1.66683 7.50044H4.56836C4.83914 7.50044 5.09302 7.36888 5.24917 7.14767L9.79366 0.709625C9.91241 0.541401 10.1362 0.485144 10.3204 0.577232L11.8322 1.33309C12.7085 1.77128 13.1611 2.76093 12.9194 3.71045L12.1667 6.6671ZM5.8335 8.82333V15.8337H15.134L17.5002 10.0874V8.33375H12.1667C11.0794 8.33375 10.2833 7.30956 10.5515 6.25592L11.3042 3.29928C11.3526 3.10937 11.2621 2.91144 11.0867 2.8238L10.5358 2.54833L6.61079 8.10881C6.40254 8.40383 6.13634 8.64566 5.8335 8.82333ZM4.16683 9.16708H2.50016V15.8337H4.16683V9.16708Z" fill="#757275"/>
</svg>
